<?xml version="1.0" encoding="utf-8"?>
<!-- Generator: Adobe Illustrator 16.0.0, SVG Export Plug-In . SVG Version: 6.00 Build 0)  -->
<!DOCTYPE svg PUBLIC "-//W3C//DTD SVG 1.1//EN" "http://www.w3.org/Graphics/SVG/1.1/DTD/svg11.dtd">
<svg version="1.1" xmlns="http://www.w3.org/2000/svg" xmlns:xlink="http://www.w3.org/1999/xlink" x="0px" y="0px" width="1280px"
	 height="800px" viewBox="0 0 1280 800" enable-background="new 0 0 1280 800" xml:space="preserve">
<g id="Layer_2">
</g>
<g id="Layer_1">
</g>
<g id="Layer_3">
	<g>
		<g>
			<defs>
				<path id="SVGID_47_" d="M703.066,246.479c0-14.265-11.566-25.823-25.822-25.823c-14.267,0-25.829,11.559-25.829,25.823
					s11.563,25.823,25.829,25.823C691.5,272.303,703.066,260.744,703.066,246.479"/>
			</defs>
			<clipPath id="SVGID_1_">
				<use xlink:href="#SVGID_47_"  overflow="visible"/>
			</clipPath>
			
				<linearGradient id="SVGID_2_" gradientUnits="userSpaceOnUse" x1="-225.458" y1="1837.2539" x2="-225.1777" y2="1837.2539" gradientTransform="matrix(-184.4791 0 0 184.4791 -40889.2656 -338688.375)">
				<stop  offset="0" style="stop-color:#C13793"/>
				<stop  offset="3.384400e-004" style="stop-color:#C13793"/>
				<stop  offset="0.9997" style="stop-color:#B158A1"/>
				<stop  offset="1" style="stop-color:#B158A1"/>
			</linearGradient>
			<rect x="651.415" y="220.656" clip-path="url(#SVGID_1_)" fill="url(#SVGID_2_)" width="51.651" height="51.646"/>
		</g>
		<path fill="#FFFFFF" d="M677.244,231.722c1.59,0,2.883,1.294,2.883,2.882v23.752c0,1.593-1.293,2.881-2.883,2.881
			c-1.598,0-2.887-1.288-2.887-2.881v-23.752C674.357,233.016,675.646,231.722,677.244,231.722"/>
		<path fill="#FFFFFF" d="M665.366,243.596h23.749c1.592,0,2.885,1.293,2.885,2.884c0,1.593-1.293,2.884-2.885,2.884h-23.749
			c-1.592,0-2.885-1.291-2.885-2.884C662.481,244.889,663.774,243.596,665.366,243.596"/>
	</g>
	<g>
		<g>
			<defs>
				<path id="SVGID_50_" d="M662.938,581.456c0-9.17-7.437-16.602-16.601-16.602c-9.172,0-16.604,7.432-16.604,16.602
					c0,9.171,7.433,16.602,16.604,16.602C655.502,598.058,662.938,590.627,662.938,581.456"/>
			</defs>
			<clipPath id="SVGID_4_">
				<use xlink:href="#SVGID_50_"  overflow="visible"/>
			</clipPath>
			
				<linearGradient id="SVGID_5_" gradientUnits="userSpaceOnUse" x1="-225.2402" y1="1839.0693" x2="-225.0605" y2="1839.0693" gradientTransform="matrix(-184.4791 0 0 184.4791 -40889.2656 -338688.375)">
				<stop  offset="0" style="stop-color:#C13793"/>
				<stop  offset="3.384400e-004" style="stop-color:#C13793"/>
				<stop  offset="0.9997" style="stop-color:#B158A1"/>
				<stop  offset="1" style="stop-color:#B158A1"/>
			</linearGradient>
			<rect x="629.733" y="564.854" clip-path="url(#SVGID_4_)" fill="url(#SVGID_5_)" width="33.205" height="33.203"/>
		</g>
		<path fill="#FFFFFF" d="M646.338,571.969c1.021,0,1.854,0.832,1.854,1.853v15.271c0,1.023-0.832,1.852-1.854,1.852
			c-1.027,0-1.855-0.828-1.855-1.852v-15.271C644.482,572.801,645.311,571.969,646.338,571.969"/>
		<path fill="#FFFFFF" d="M638.702,579.603h15.269c1.022,0,1.854,0.831,1.854,1.854c0,1.024-0.831,1.854-1.854,1.854h-15.269
			c-1.024,0-1.854-0.83-1.854-1.854C636.848,580.434,637.678,579.603,638.702,579.603"/>
	</g>
	<g>
		<g>
			<defs>
				<path id="SVGID_53_" d="M844.665,138.814c0-6.244-5.062-11.308-11.306-11.308c-6.245,0-11.306,5.063-11.306,11.308
					s5.061,11.306,11.306,11.306C839.604,150.12,844.665,145.059,844.665,138.814"/>
			</defs>
			<clipPath id="SVGID_6_">
				<use xlink:href="#SVGID_53_"  overflow="visible"/>
			</clipPath>
			
				<linearGradient id="SVGID_7_" gradientUnits="userSpaceOnUse" x1="-226.2256" y1="1836.6699" x2="-226.103" y2="1836.6699" gradientTransform="matrix(-184.4791 0 0 184.4791 -40889.2656 -338688.375)">
				<stop  offset="0" style="stop-color:#F7982A"/>
				<stop  offset="0.0147" style="stop-color:#F7982A"/>
				<stop  offset="0.9797" style="stop-color:#FAB052"/>
				<stop  offset="1" style="stop-color:#FAB052"/>
			</linearGradient>
			<rect x="822.054" y="127.507" clip-path="url(#SVGID_6_)" fill="url(#SVGID_7_)" width="22.611" height="22.613"/>
		</g>
		<path fill="#FFFFFF" d="M833.359,132.352c0.698,0,1.264,0.566,1.264,1.262v10.4c0,0.697-0.565,1.262-1.264,1.262
			c-0.696,0-1.263-0.564-1.263-1.262v-10.4C832.097,132.918,832.663,132.352,833.359,132.352"/>
		<path fill="#FFFFFF" d="M828.161,137.553h10.397c0.696,0,1.263,0.564,1.263,1.262s-0.566,1.262-1.263,1.262h-10.397
			c-0.7,0-1.263-0.564-1.263-1.262S827.461,137.553,828.161,137.553"/>
	</g>
	<g>
		<g>
			<defs>
				<path id="SVGID_56_" d="M385.676,175.258c0-11.043-8.954-20-20.002-19.998c-11.044,0-19.998,8.955-19.998,20.002
					c0,11.044,8.954,19.997,19.998,19.997C376.722,195.259,385.676,186.304,385.676,175.258"/>
			</defs>
			<linearGradient id="SVGID_8_" gradientUnits="userSpaceOnUse" x1="345.6768" y1="175.2598" x2="385.6763" y2="175.2598">
				<stop  offset="0" style="stop-color:#F7982A"/>
				<stop  offset="0.0147" style="stop-color:#F7982A"/>
				<stop  offset="0.9797" style="stop-color:#FAB052"/>
				<stop  offset="1" style="stop-color:#FAB052"/>
			</linearGradient>
			<use xlink:href="#SVGID_56_"  overflow="visible" fill="url(#SVGID_8_)"/>
			<clipPath id="SVGID_10_">
				<use xlink:href="#SVGID_56_"  overflow="visible"/>
			</clipPath>
			
				<linearGradient id="SVGID_11_" gradientUnits="userSpaceOnUse" x1="-223.2632" y1="1838.1436" x2="-222.9844" y2="1838.1436" gradientTransform="matrix(-143.4082 0.0066 0 143.4116 -31632.0313 -263434.5625)">
				<stop  offset="0" style="stop-color:#04A3DD"/>
				<stop  offset="3.384400e-004" style="stop-color:#04A3DD"/>
				<stop  offset="0.9997" style="stop-color:#4EC5E0"/>
				<stop  offset="1" style="stop-color:#4EC5E0"/>
			</linearGradient>
			<rect x="345.677" y="155.259" clip-path="url(#SVGID_10_)" fill="url(#SVGID_11_)" width="40" height="40.001"/>
		</g>
		<path fill="#FFFFFF" d="M365.674,163.828c1.234,0,2.232,1.002,2.232,2.232v18.397c0,1.23-0.998,2.232-2.232,2.232
			c-1.234,0-2.232-1.002-2.232-2.232v-18.397C363.442,164.83,364.44,163.828,365.674,163.828"/>
		<path fill="#FFFFFF" d="M356.478,173.029h18.398c1.232,0,2.232,0.998,2.232,2.229c0,1.232-1,2.231-2.232,2.231l-18.398,0.005
			c-1.234,0-2.232-1.002-2.232-2.232C354.246,174.027,355.244,173.029,356.478,173.029"/>
	</g>
	<g>
		<g>
			<defs>
				<path id="SVGID_60_" d="M1060.908,578.363c0-8.678-7.036-15.715-15.718-15.715c-8.678,0-15.713,7.037-15.713,15.718
					c0.001,8.679,7.036,15.715,15.714,15.715C1053.873,594.081,1060.908,587.044,1060.908,578.363"/>
			</defs>
			
				<linearGradient id="SVGID_12_" gradientUnits="userSpaceOnUse" x1="1104.3154" y1="938.332" x2="1144.3135" y2="938.332" gradientTransform="matrix(0.7858 0 0 0.7858 161.7063 -158.9761)">
				<stop  offset="0" style="stop-color:#F7982A"/>
				<stop  offset="0.0147" style="stop-color:#F7982A"/>
				<stop  offset="0.9797" style="stop-color:#FAB052"/>
				<stop  offset="1" style="stop-color:#FAB052"/>
			</linearGradient>
			<use xlink:href="#SVGID_60_"  overflow="visible" fill="url(#SVGID_12_)"/>
			<clipPath id="SVGID_13_">
				<use xlink:href="#SVGID_60_"  overflow="visible"/>
			</clipPath>
			
				<linearGradient id="SVGID_14_" gradientUnits="userSpaceOnUse" x1="-228.5493" y1="1843.4609" x2="-228.2705" y2="1843.4609" gradientTransform="matrix(-112.6865 0.0052 0.0035 112.6937 -24699.9453 -207166.9688)">
				<stop  offset="0" style="stop-color:#04A3DD"/>
				<stop  offset="3.384400e-004" style="stop-color:#04A3DD"/>
				<stop  offset="0.9997" style="stop-color:#4EC5E0"/>
				<stop  offset="1" style="stop-color:#4EC5E0"/>
			</linearGradient>
			<rect x="1029.478" y="562.648" clip-path="url(#SVGID_13_)" fill="url(#SVGID_14_)" width="31.43" height="31.434"/>
		</g>
		<path fill="#FFFFFF" d="M1045.19,569.383c0.97,0,1.755,0.787,1.755,1.754v14.457c0,0.967-0.784,1.754-1.754,1.754
			c-0.969,0-1.754-0.787-1.754-1.755v-14.456C1043.438,570.17,1044.222,569.383,1045.19,569.383"/>
		<path fill="#FFFFFF" d="M1037.965,576.612h14.456c0.968,0,1.754,0.784,1.754,1.751c0,0.969-0.786,1.754-1.754,1.754l-14.456,0.003
			c-0.97,0-1.754-0.786-1.754-1.754C1036.211,577.396,1036.995,576.612,1037.965,576.612"/>
	</g>
	<g>
		<g>
			<defs>
				<path id="SVGID_64_" d="M243.587,570.336c0-10.744-8.71-19.457-19.455-19.457c-10.749,0-19.459,8.712-19.459,19.457
					c0,10.744,8.711,19.456,19.459,19.456C234.877,589.792,243.587,581.081,243.587,570.336"/>
			</defs>
			<clipPath id="SVGID_16_">
				<use xlink:href="#SVGID_64_"  overflow="visible"/>
			</clipPath>
			
				<linearGradient id="SVGID_17_" gradientUnits="userSpaceOnUse" x1="-223.0142" y1="1838.1504" x2="-222.834" y2="1838.1504" gradientTransform="matrix(-215.8626 -0.0034 0 215.8626 -47896.8516 -396218.1563)">
				<stop  offset="0" style="stop-color:#F7982A"/>
				<stop  offset="0.0147" style="stop-color:#F7982A"/>
				<stop  offset="0.9797" style="stop-color:#FAB052"/>
				<stop  offset="1" style="stop-color:#FAB052"/>
			</linearGradient>
			<rect x="204.673" y="550.879" clip-path="url(#SVGID_16_)" fill="url(#SVGID_17_)" width="38.914" height="38.913"/>
		</g>
		<path fill="#FFFFFF" d="M224.132,559.215c1.2,0,2.172,0.976,2.172,2.173v17.896c0,1.201-0.972,2.173-2.172,2.173
			s-2.173-0.972-2.173-2.173v-17.896C221.959,560.19,222.932,559.215,224.132,559.215"/>
		<path fill="#FFFFFF" d="M215.182,568.163h17.896c1.201,0,2.174,0.975,2.174,2.173c0,1.2-0.973,2.172-2.174,2.172l-17.896,0.001
			c-1.199,0-2.171-0.973-2.171-2.173C213.011,569.138,213.983,568.163,215.182,568.163"/>
	</g>
	<g>
		<g>
			<defs>
				<path id="SVGID_67_" d="M599.146,476.953c0-10.578-8.576-19.15-19.15-19.15c-10.578,0-19.15,8.572-19.15,19.15
					s8.572,19.15,19.15,19.15C590.569,496.104,599.146,487.531,599.146,476.953"/>
			</defs>
			<clipPath id="SVGID_18_">
				<use xlink:href="#SVGID_67_"  overflow="visible"/>
			</clipPath>
			
				<linearGradient id="SVGID_19_" gradientUnits="userSpaceOnUse" x1="-224.8945" y1="1838.502" x2="-224.687" y2="1838.502" gradientTransform="matrix(-184.4791 0 0 184.4791 -40889.2656 -338688.375)">
				<stop  offset="0" style="stop-color:#B30E0E"/>
				<stop  offset="1" style="stop-color:#FF1818"/>
			</linearGradient>
			<rect x="560.845" y="457.803" clip-path="url(#SVGID_18_)" fill="url(#SVGID_19_)" width="38.301" height="38.301"/>
		</g>
		<path fill="#FFFFFF" d="M579.995,466.009c1.182,0,2.138,0.958,2.138,2.138v17.613c0,1.183-0.956,2.139-2.138,2.139
			c-1.183,0-2.139-0.956-2.139-2.139v-17.613C577.856,466.967,578.813,466.009,579.995,466.009"/>
		<path fill="#FFFFFF" d="M571.188,474.815h17.613c1.178,0,2.138,0.958,2.138,2.138c0,1.181-0.96,2.139-2.138,2.139h-17.613
			c-1.183,0-2.139-0.958-2.139-2.139C569.05,475.773,570.006,474.815,571.188,474.815"/>
	</g>
	<g>
		<g>
			<defs>
				<path id="SVGID_70_" d="M1125.54,157.036c0-10.064-8.161-18.223-18.223-18.223c-10.066,0-18.225,8.158-18.225,18.223
					c0,10.065,8.158,18.224,18.225,18.223C1117.379,175.259,1125.54,167.101,1125.54,157.036"/>
			</defs>
			<clipPath id="SVGID_20_">
				<use xlink:href="#SVGID_70_"  overflow="visible"/>
			</clipPath>
			
				<linearGradient id="SVGID_22_" gradientUnits="userSpaceOnUse" x1="-219.8203" y1="1829.752" x2="-219.8911" y2="1829.6293" gradientTransform="matrix(-350.697 0.0011 0 350.6965 -75995.4688 -641509.25)">
				<stop  offset="0" style="stop-color:#B30E0E"/>
				<stop  offset="1" style="stop-color:#FF1818"/>
			</linearGradient>
			<rect x="1089.093" y="138.813" clip-path="url(#SVGID_20_)" fill="url(#SVGID_22_)" width="36.447" height="36.446"/>
		</g>
		<path fill="#FFFFFF" d="M1107.317,146.622c1.123,0,2.034,0.912,2.034,2.035v16.76c0,1.123-0.911,2.035-2.034,2.035
			c-1.125,0-2.035-0.912-2.035-2.035v-16.76C1105.282,147.534,1106.192,146.622,1107.317,146.622"/>
		<path fill="#FFFFFF" d="M1098.935,155.003h16.762c1.122,0,2.035,0.91,2.035,2.033s-0.913,2.034-2.035,2.034l-16.762,0.002
			c-1.123,0-2.034-0.913-2.034-2.036S1097.812,155.003,1098.935,155.003"/>
	</g>
</g>
</svg>
