<?xml version="1.0" encoding="utf-8"?>
<!-- Generator: Adobe Illustrator 16.0.0, SVG Export Plug-In . SVG Version: 6.00 Build 0)  -->
<!DOCTYPE svg PUBLIC "-//W3C//DTD SVG 1.1//EN" "http://www.w3.org/Graphics/SVG/1.1/DTD/svg11.dtd">
<svg version="1.1" xmlns="http://www.w3.org/2000/svg" xmlns:xlink="http://www.w3.org/1999/xlink" x="0px" y="0px"
	 width="601.137px" height="196.627px" viewBox="0 0 601.137 196.627" enable-background="new 0 0 601.137 196.627"
	 xml:space="preserve">
<g id="Layer_2">
</g>
<g id="Layer_1">
	<g>
		<path d="M601.137,170.054c0,14.679-11.912,26.573-26.565,26.573H26.564C11.895,196.627,0,184.732,0,170.054V26.573
			C0,11.888,11.895,0,26.564,0h548.007c14.653,0,26.565,11.888,26.565,26.573V170.054z"/>
	</g>
	<g>
		<g>
			<defs>
				<path id="SVGID_21_" d="M96.455,141.087c-0.561,1.286-1.117,2.574-1.668,3.864c-0.191,0.454-0.018,0.684,0.467,0.688
					c0.512,0.004,1.025,0,1.537,0l0,0c0.533,0,1.07,0.007,1.605-0.005c0.533-0.008,0.666-0.282,0.463-0.749
					c-0.553-1.265-1.109-2.528-1.664-3.79c-0.072-0.17-0.164-0.33-0.371-0.343c-0.008,0-0.014,0-0.021,0
					C96.594,140.753,96.521,140.931,96.455,141.087 M141.24,137.221c1.502-0.016,1.191-0.03,1.201,1.81
					c0.021,3.608,0.008,7.216,0.006,10.824c0,0.843-0.035,0.87-0.855,0.878c-1.561,0.016-1.561,0.016-1.559-1.543v-5.212h-0.039
					c0-2.093,0.008-4.186-0.006-6.278c-0.002-0.311,0.084-0.467,0.398-0.473c0.045-0.002,0.088-0.006,0.135-0.006
					c0.098,0.002,0.191,0.002,0.279,0.002C140.963,137.223,141.107,137.221,141.24,137.221 M69.443,142.026
					c-0.02-1.357,0.01-2.718-0.016-4.075c-0.01-0.554,0.193-0.748,0.742-0.739c2.104,0.044,1.768-0.247,1.789,1.753
					c0.016,1.693,0.002,3.387,0.002,5.08c0,1.981-0.018,3.964,0.01,5.949c0.01,0.629-0.197,0.874-0.844,0.861
					c-1.934-0.04-1.674,0.169-1.688-1.675c-0.01-1.092-0.014-2.184,0.002-3.274c0.01-0.537-0.217-0.782-0.75-0.779
					c-1.691,0.004-3.385,0.004-5.078-0.003c-0.582-0.002-0.77,0.288-0.762,0.837c0.02,1.381-0.012,2.762,0.016,4.143
					c0.008,0.551-0.205,0.756-0.748,0.746c-0.262-0.005-0.484-0.005-0.676-0.005c-1.359,0.005-1.096,0.009-1.104-1.748
					c-0.018-3.632-0.006-7.263-0.006-10.895c0-0.978,0.002-0.988,0.951-0.981c0.182,0.002,0.342,0,0.484,0
					c1.273-0.011,1.072-0.021,1.086,1.558c0.012,1.069,0.021,2.14-0.004,3.208c-0.014,0.581,0.178,0.861,0.803,0.854
					c1.67-0.023,3.34-0.02,5.012-0.002c0.006,0,0.01,0,0.016,0C69.254,142.838,69.449,142.582,69.443,142.026 M77.803,149.411
					c-0.9-0.938-1.383-2.097-1.408-3.377c-0.051-2.694-0.01-5.391-0.027-8.085c-0.006-0.554,0.203-0.746,0.746-0.737
					c0.271,0.007,0.504,0.007,0.699,0.007c1.334,0,1.064,0,1.08,1.746c0.023,2.115,0.029,4.231,0.006,6.348
					c-0.031,2.673,2.479,3.991,4.789,2.988c1.498-0.653,1.75-2.043,1.77-3.47c0.031-2.314,0.021-4.631-0.008-6.945
					c-0.006-0.501,0.131-0.699,0.629-0.67c0.445,0.025,0.891,0.013,1.336,0.007c0.402-0.004,0.518,0.175,0.51,0.58
					c-0.027,1.381-0.01,2.763-0.01,4.142h-0.029c0,1.292,0.016,2.585-0.002,3.877c-0.035,2.38-1.387,4.382-3.709,4.861
					c-0.82,0.169-1.656,0.3-2.477,0.3C80.299,150.982,78.949,150.606,77.803,149.411 M126.277,149.973
					c0.025-2.006,0.01-4.012,0.01-6.019c-0.002-1.962,0.018-3.923-0.012-5.883c-0.01-0.618,0.16-0.872,0.824-0.864
					c2.762,0.028,5.527,0.021,8.291,0.003c0.566-0.003,0.803,0.171,0.791,0.767c-0.027,1.537,0.098,1.524-1.041,1.51
					c-0.137,0-0.289-0.002-0.465-0.002c-1.672,0.008-3.344,0.019-5.014-0.009c-0.645-0.011-0.898,0.232-0.855,0.863
					c0.029,0.423,0.004,0.847,0.006,1.271c0.006,0.899,0.066,0.963,0.939,0.965c1.16,0.005,2.318,0.017,3.477-0.004
					c0.537-0.011,0.813,0.138,0.686,0.73c-0.045,0.216-0.018,0.446-0.012,0.667c0.027,0.855,0.029,0.859-0.803,0.862
					c-1.158,0.004-2.318,0.021-3.477-0.007c-0.613-0.015-0.844,0.241-0.816,0.836c0.027,0.645,0,1.293,0.008,1.939
					c0.006,0.851,0.125,0.975,0.965,0.979c1.209,0.004,2.418,0.004,3.627,0.002c0.686,0,1.371,0,2.057,0
					c0.965,0.002,0.975,0.013,0.977,0.968c0,0.111-0.01,0.224,0.002,0.331c0.072,0.625-0.168,0.87-0.824,0.863
					c-2.854-0.024-5.705-0.021-8.557,0c-0.008,0-0.014,0-0.02,0C126.479,150.743,126.27,150.554,126.277,149.973 M109.531,145.934
					c0.889-2.708,1.793-5.41,2.67-8.122c0.129-0.397,0.322-0.579,0.75-0.598c1.475-0.063,1.504-0.087,1.98,1.297
					c0.842,2.44,1.641,4.896,2.459,7.347c0.066,0.198,0.051,0.498,0.359,0.479c0.27-0.017,0.301-0.28,0.367-0.494
					c0.857-2.673,1.723-5.342,2.572-8.016c0.133-0.422,0.365-0.629,0.82-0.604c0.445,0.023,0.893,0.017,1.338,0.002
					c0.498-0.015,0.617,0.156,0.445,0.646c-1.008,2.856-1.99,5.723-2.98,8.584c-0.41,1.178-0.836,2.352-1.219,3.539
					c-0.168,0.523-0.443,0.758-1.012,0.741c-1.686-0.051-1.354,0.189-1.883-1.341c-0.814-2.357-1.697-4.69-2.412-7.079
					c-0.053-0.177-0.129-0.356-0.344-0.358c-0.297,0-0.322,0.266-0.391,0.469c-0.861,2.483-1.742,4.96-2.563,7.458
					c-0.211,0.643-0.516,0.881-1.189,0.857c-1.281-0.044-1.273-0.013-1.686-1.192c-1.332-3.806-2.67-7.609-4.004-11.41
					c-0.045-0.127-0.064-0.262-0.123-0.382c-0.223-0.452,0.002-0.55,0.4-0.532c0.268,0.011,0.535,0.002,0.803,0.002
					c0.178,0,0.359,0.023,0.533-0.004c0.648-0.104,0.908,0.253,1.08,0.811c0.818,2.636,1.654,5.265,2.488,7.897
					c0.063,0.19,0.115,0.41,0.367,0.412C109.412,146.343,109.467,146.129,109.531,145.934 M89.969,150.739
					c-0.311-0.025-0.1-0.323-0.031-0.483c0.725-1.649,1.463-3.295,2.191-4.943c1.088-2.463,2.186-4.925,3.246-7.397
					c0.217-0.501,0.506-0.659,1.047-0.718c1.158-0.131,1.75,0.247,2.221,1.387c1.594,3.867,3.334,7.674,5.039,11.496
					c0.236,0.532,0.105,0.691-0.432,0.657c-0.221-0.013-0.443,0-0.666,0c-0.189-0.005-0.35-0.002-0.486,0
					c-0.799,0.013-0.803,0.027-1.332-1.246c-0.725-1.735-0.533-1.717-1.834-1.698c-0.195,0.005-0.426,0.007-0.697,0.003
					c-0.629-0.009-1.256-0.005-1.885-0.003c-0.664,0.003-1.326,0.005-1.99-0.006c-0.535-0.006-0.885,0.192-1.08,0.699
					c-0.227,0.582-0.484,1.15-0.734,1.721c-0.088,0.203-0.16,0.496-0.385,0.512c-0.443,0.029-0.891,0.053-1.338,0.053
					C90.537,150.771,90.252,150.761,89.969,150.739 M118.922,127.139c-3.508-1.695-6.668-3.944-9.887-6.103
					c-0.139-0.093-0.354-0.18-0.262-0.401c0.057-0.141,0.195-0.135,0.326-0.129c0.031,0.002,0.063,0.005,0.092,0.005
					c0.402-0.009,0.805-0.005,1.205-0.005c-0.002,0.009-0.002,0.018-0.002,0.025c4.293,0.129,8.59,0.23,12.883,0.399
					c2.334,0.091,4.666,0.238,7.006,0.247c0.848,0.002,0.91,0.098,0.455,0.805c-1.352,2.107-2.963,3.949-5.271,5.08
					c-1.127,0.556-2.25,0.843-3.377,0.843C121.041,127.905,119.99,127.656,118.922,127.139 M73.346,121.146
					c4.094-0.129,8.189-0.23,12.283-0.396c2.578-0.104,5.158-0.236,7.74-0.245c0.189,0,0.451-0.08,0.529,0.158
					c0.064,0.201-0.16,0.292-0.305,0.391c-2.967,2.058-5.967,4.047-9.162,5.751c-3.705,1.977-6.877,0.994-9.594-1.379
					c-1.182-1.033-2.172-2.241-2.984-3.582c-0.324-0.534-0.26-0.646,0.357-0.665c0.377-0.013,0.756-0.002,1.137-0.002
					C73.348,121.165,73.346,121.156,73.346,121.146 M78.008,118.62c-6.457-0.022-11.902-4.624-13.041-10.98
					c-0.336-1.88-0.205-3.719,0.234-5.563c0.125-0.525,0.326-0.578,0.787-0.329c5.363,2.912,10.705,5.859,15.986,8.922
					c3.873,2.247,7.729,4.52,11.469,6.985c0.131,0.087,0.266,0.163,0.387,0.262c0.18,0.148,0.545,0.22,0.463,0.497
					c-0.072,0.244-0.313,0.226-0.531,0.206c-0.061-0.006-0.121-0.011-0.176-0.011c-1.381,0.014-2.764,0.009-4.146,0.011h-3.943
					v0.003c-1.477,0-2.953,0.002-4.43,0.002C80.047,118.625,79.027,118.625,78.008,118.62 M108.387,118.426
					c-0.074-0.274,0.256-0.382,0.449-0.511c3.617-2.367,7.313-4.602,11.045-6.778c4.906-2.863,9.869-5.623,14.846-8.354
					c0.664-0.363,1.346-0.701,1.992-1.094c0.467-0.281,0.658-0.148,0.785,0.342c0.486,1.862,0.568,3.759,0.205,5.63
					c-0.979,5.053-3.926,8.468-8.771,10.229c-1.77,0.646-3.625,0.667-5.467,0.706c-2.34,0.048-4.682,0.012-7.021,0.012v0.005
					c-2.471,0-4.943,0.002-7.416-0.007c-0.051,0-0.107,0.007-0.164,0.011c-0.055,0.004-0.113,0.011-0.166,0.011
					C108.559,118.627,108.43,118.591,108.387,118.426 M95.434,115.58c-1.449-0.739-2.904-1.471-4.338-2.238
					c-4.4-2.355-8.744-4.807-12.838-7.681c-1.861-1.308-3.648-2.701-5.238-4.344c-1.934-1.998-2.955-4.353-2.957-7.653
					c-0.029-2.295,1.154-4.673,2.6-6.951c0.777-1.225,1.686-2.353,2.705-3.39c0.553-0.565,0.6-0.56,1.105,0.085
					c3,3.824,5.797,7.794,8.449,11.863c3.738,5.735,7.129,11.669,10.115,17.831c0.311,0.64,0.627,1.28,0.906,1.937
					c0.094,0.222,0.414,0.473,0.16,0.703c-0.051,0.047-0.105,0.065-0.164,0.065C95.775,115.808,95.588,115.658,95.434,115.58
					 M106.639,115.728c-0.271-0.234,0.018-0.494,0.119-0.714c2.691-5.761,5.748-11.318,9.107-16.714
					c3.148-5.056,6.523-9.946,10.18-14.643c0.756-0.972,0.771-0.995,1.588-0.085c2.086,2.328,3.857,4.854,4.646,7.934
					c0.232,0.898,0.488,1.809,0.4,2.767c-0.123,3.231-1.521,5.841-3.912,7.968c-4.273,3.805-9.184,6.656-14.141,9.441
					c-2.408,1.354-4.85,2.648-7.32,3.881c-0.154,0.076-0.326,0.234-0.494,0.234C106.754,115.797,106.695,115.778,106.639,115.728
					 M103.566,113.82c-0.314-0.08-0.236-0.549-0.256-0.836c-0.146-1.996-0.354-3.984-0.469-5.984
					c-0.203-3.557-0.439-7.11-0.371-10.673c0.098-5.009,0.406-10.007,1.373-14.936c0.508-2.602,1.203-5.161,2.391-7.556
					c0.215-0.431,0.475-0.752,1.02-0.687c2.826,0.336,5.557,0.954,7.658,3.06c2.107,2.112,3.334,4.607,3.078,7.423
					c0.08,3.315-0.898,6.13-2.02,8.905c-1.877,4.639-4.361,8.968-6.953,13.236c-1.525,2.513-3.1,4.998-4.773,7.416
					c-0.164,0.236-0.291,0.642-0.588,0.642C103.629,113.831,103.6,113.827,103.566,113.82 M98.641,113.48
					c-1.428-2.18-2.895-4.337-4.268-6.553c-2.229-3.598-4.338-7.268-6.184-11.084c-1.42-2.936-2.666-5.94-3.305-9.146
					c-0.748-3.755-0.162-7.243,2.527-10.139c1.346-1.45,3.039-2.395,4.977-2.851c0.822-0.194,1.652-0.365,2.482-0.518
					c1.033-0.188,1.283-0.038,1.725,0.906c1.416,3.018,2.131,6.231,2.635,9.496c0.707,4.605,0.982,9.245,0.955,14.143
					c0.041,3.461-0.209,7.147-0.416,10.837c-0.082,1.51-0.262,3.011-0.4,4.517c-0.008,0.089-0.016,0.18-0.043,0.264
					c-0.059,0.184-0.02,0.457-0.26,0.496c-0.016,0.005-0.033,0.005-0.047,0.005C98.82,113.854,98.738,113.631,98.641,113.48
					 M61.795,30.86c-4.02,0.467-7.957,1.24-11.715,2.769c-4.82,1.962-8.74,5.032-11.502,9.494
					c-1.979,3.199-3.195,6.688-3.979,10.355c-0.896,4.196-1.303,8.435-1.301,12.722c0.012,20.887,0.014,41.769-0.01,62.653
					c-0.004,3.924,0.148,7.826,0.789,11.707c0.529,3.195,1.285,6.316,2.547,9.307c2.973,7.06,8.242,11.591,15.441,13.971
					c2.283,0.754,4.619,1.284,6.998,1.664c2.244,0.361,4.498,0.705,6.758,0.719c11.813,0.057,23.625,0.024,35.438,0.024v0.02
					c10.252,0,20.506-0.017,30.758,0.011c3.857,0.01,7.688-0.152,11.504-0.788c3.328-0.556,6.572-1.362,9.664-2.716
					c5.955-2.609,10.178-6.931,12.705-12.915c1.268-3.011,2.063-6.147,2.553-9.374c0.494-3.264,0.781-6.533,0.779-9.838
					c-0.02-21.352-0.027-42.705,0-64.057c0.006-4.943-0.477-9.814-1.65-14.617c-0.594-2.434-1.438-4.778-2.584-7.006
					c-2.678-5.205-6.764-8.887-12.139-11.16c-3.24-1.366-6.621-2.173-10.096-2.68c-2.869-0.418-5.754-0.73-8.641-0.737
					c-14.1-0.036-28.199-0.036-42.299-0.034c-5.492,0-10.984,0-16.477-0.002c-0.432,0-0.865,0-1.297,0
					C69.953,30.352,65.871,30.386,61.795,30.86"/>
			</defs>
			<clipPath id="SVGID_1_">
				<use xlink:href="#SVGID_21_"  overflow="visible"/>
			</clipPath>
			
				<linearGradient id="SVGID_2_" gradientUnits="userSpaceOnUse" x1="-2756.2402" y1="-1110.1953" x2="-2756.0195" y2="-1110.1953" gradientTransform="matrix(0 -616.1328 -616.1328 0 -683926.5 -1698044.125)">
				<stop  offset="0" style="stop-color:#D4313E"/>
				<stop  offset="0.438" style="stop-color:#D4313E"/>
				<stop  offset="0.5709" style="stop-color:#E2455C"/>
				<stop  offset="1" style="stop-color:#E2455C"/>
			</linearGradient>
			<rect x="33.285" y="30.352" clip-path="url(#SVGID_1_)" fill="url(#SVGID_2_)" width="135.943" height="135.934"/>
		</g>
		<g>
			<defs>
				<rect id="SVGID_24_" x="-9.049" y="-11.99" width="220.607" height="220.606"/>
			</defs>
			<clipPath id="SVGID_4_">
				<use xlink:href="#SVGID_24_"  overflow="visible"/>
			</clipPath>
			<path clip-path="url(#SVGID_4_)" fill="#FFFFFF" d="M94.293,118.414c-0.094,0.314-0.457,0.193-0.707,0.195
				c-1.381,0.014-2.764,0.009-4.146,0.011h-3.943v0.003c-2.496,0-4.992,0.006-7.488-0.003c-6.457-0.022-11.902-4.624-13.041-10.98
				c-0.336-1.88-0.205-3.719,0.234-5.563c0.125-0.525,0.326-0.578,0.785-0.329c5.363,2.912,10.707,5.859,15.988,8.922
				c3.873,2.247,7.729,4.52,11.469,6.985c0.131,0.087,0.266,0.163,0.387,0.262C94.01,118.065,94.375,118.137,94.293,118.414"/>
			<path clip-path="url(#SVGID_4_)" fill="#FFFFFF" d="M71.971,149.994c0.01,0.629-0.197,0.874-0.844,0.861
				c-1.934-0.04-1.674,0.169-1.688-1.675c-0.01-1.092-0.014-2.184,0.002-3.274c0.01-0.537-0.217-0.782-0.75-0.779
				c-1.691,0.004-3.385,0.004-5.078-0.003c-0.582-0.002-0.77,0.288-0.762,0.837c0.02,1.381-0.012,2.762,0.016,4.143
				c0.008,0.551-0.205,0.756-0.748,0.746c-2.113-0.036-1.77,0.251-1.779-1.753c-0.018-3.632-0.006-7.263-0.006-10.895
				c0-0.978,0.002-0.988,0.951-0.981c1.805,0.012,1.555-0.199,1.57,1.558c0.012,1.069,0.021,2.14-0.004,3.208
				c-0.014,0.581,0.178,0.861,0.803,0.854c1.67-0.023,3.34-0.02,5.012-0.002c0.582,0.006,0.783-0.252,0.777-0.812
				c-0.02-1.357,0.01-2.718-0.016-4.075c-0.01-0.554,0.193-0.748,0.742-0.739c2.104,0.044,1.768-0.247,1.789,1.753
				c0.016,1.693,0.002,3.387,0.002,5.08C71.961,146.026,71.943,148.009,71.971,149.994"/>
			<path clip-path="url(#SVGID_4_)" fill="#FFFFFF" d="M96.104,115.742c-0.195,0.18-0.461-0.057-0.67-0.162
				c-1.449-0.739-2.904-1.471-4.338-2.238c-4.4-2.355-8.744-4.807-12.838-7.681c-1.861-1.308-3.648-2.701-5.238-4.344
				c-1.934-1.998-2.955-4.353-2.957-7.653c-0.029-2.295,1.154-4.673,2.6-6.951c0.777-1.225,1.686-2.353,2.705-3.39
				c0.553-0.565,0.6-0.56,1.105,0.085c3,3.824,5.797,7.794,8.449,11.863c3.738,5.735,7.129,11.669,10.115,17.831
				c0.311,0.64,0.627,1.28,0.908,1.937C96.037,115.261,96.357,115.512,96.104,115.742"/>
			<path clip-path="url(#SVGID_4_)" fill="#FFFFFF" d="M87.914,141.944h-0.029c0,1.292,0.016,2.585-0.002,3.877
				c-0.035,2.38-1.387,4.382-3.709,4.861c-2.217,0.458-4.553,0.622-6.371-1.271c-0.9-0.938-1.383-2.097-1.408-3.377
				c-0.051-2.694-0.01-5.391-0.027-8.085c-0.006-0.554,0.203-0.746,0.746-0.737c2.119,0.044,1.76-0.251,1.781,1.753
				c0.021,2.115,0.027,4.231,0.004,6.348c-0.031,2.673,2.479,3.991,4.789,2.988c1.498-0.653,1.75-2.043,1.77-3.47
				c0.031-2.314,0.021-4.631-0.01-6.945c-0.004-0.501,0.133-0.699,0.631-0.67c0.445,0.025,0.891,0.013,1.336,0.007
				c0.402-0.004,0.52,0.175,0.51,0.58C87.896,139.184,87.914,140.565,87.914,141.944"/>
			<path clip-path="url(#SVGID_4_)" fill="#FFFFFF" d="M117.99,83.632c0.08,3.315-0.898,6.13-2.02,8.905
				c-1.877,4.639-4.361,8.968-6.953,13.236c-1.525,2.513-3.1,4.998-4.773,7.416c-0.18,0.26-0.316,0.722-0.678,0.631
				c-0.314-0.08-0.236-0.549-0.256-0.836c-0.146-1.996-0.354-3.984-0.469-5.984c-0.203-3.557-0.439-7.11-0.371-10.673
				c0.098-5.009,0.406-10.007,1.373-14.936c0.508-2.602,1.203-5.161,2.391-7.556c0.215-0.431,0.475-0.752,1.02-0.687
				c2.826,0.336,5.557,0.954,7.658,3.06C117.02,78.318,118.246,80.816,117.99,83.632"/>
			<path clip-path="url(#SVGID_4_)" fill="#FFFFFF" d="M132.68,94.272c-0.123,3.231-1.521,5.839-3.912,7.968
				c-4.273,3.805-9.184,6.656-14.141,9.441c-2.408,1.354-4.85,2.648-7.32,3.881c-0.207,0.102-0.449,0.355-0.668,0.165
				c-0.271-0.234,0.018-0.494,0.119-0.714c2.691-5.761,5.748-11.318,9.107-16.714c3.148-5.056,6.523-9.944,10.18-14.643
				c0.756-0.972,0.771-0.995,1.588-0.085c2.086,2.328,3.857,4.854,4.646,7.934C132.512,92.404,132.768,93.314,132.68,94.272"/>
			<path clip-path="url(#SVGID_4_)" fill="#FFFFFF" d="M99.77,108.573c-0.082,1.51-0.262,3.011-0.4,4.517
				c-0.008,0.089-0.016,0.18-0.043,0.264c-0.057,0.184-0.02,0.457-0.26,0.496c-0.232,0.041-0.32-0.206-0.426-0.369
				c-1.428-2.182-2.895-4.337-4.268-6.553c-2.229-3.598-4.338-7.268-6.184-11.084c-1.42-2.936-2.666-5.94-3.305-9.146
				c-0.748-3.755-0.162-7.243,2.527-10.141c1.346-1.448,3.039-2.393,4.977-2.849c0.822-0.194,1.652-0.365,2.482-0.518
				c1.033-0.188,1.283-0.038,1.725,0.906c1.416,3.018,2.131,6.231,2.635,9.496c0.707,4.605,0.982,9.245,0.955,14.143
				C100.227,101.197,99.977,104.884,99.77,108.573"/>
			<path clip-path="url(#SVGID_4_)" fill="#FFFFFF" d="M93.594,121.055c-2.967,2.058-5.967,4.047-9.162,5.751
				c-3.705,1.977-6.877,0.994-9.594-1.379c-1.182-1.033-2.172-2.241-2.984-3.582c-0.324-0.534-0.26-0.646,0.357-0.665
				c0.377-0.013,0.756-0.002,1.137-0.002c0-0.013-0.002-0.021-0.002-0.031c4.094-0.129,8.189-0.23,12.283-0.396
				c2.578-0.104,5.158-0.236,7.74-0.245c0.189,0,0.451-0.08,0.529,0.158C93.963,120.865,93.738,120.956,93.594,121.055"/>
			<path clip-path="url(#SVGID_4_)" fill="#FFFFFF" d="M137.709,107.661c-0.979,5.053-3.926,8.468-8.771,10.229
				c-1.77,0.646-3.625,0.667-5.467,0.706c-2.34,0.048-4.682,0.012-7.021,0.012v0.005c-2.471,0-4.943,0.002-7.416-0.007
				c-0.23,0-0.568,0.112-0.646-0.18c-0.074-0.274,0.256-0.382,0.449-0.511c3.617-2.367,7.313-4.602,11.045-6.778
				c4.906-2.863,9.869-5.621,14.846-8.354c0.664-0.363,1.346-0.701,1.992-1.094c0.467-0.281,0.658-0.148,0.785,0.342
				C137.99,103.896,138.072,105.79,137.709,107.661"/>
			<path clip-path="url(#SVGID_4_)" fill="#FFFFFF" d="M135.617,150.743c-2.854-0.024-5.705-0.021-8.557,0
				c-0.578,0.005-0.791-0.184-0.783-0.771c0.025-2.006,0.01-4.012,0.01-6.019c-0.002-1.962,0.018-3.923-0.012-5.883
				c-0.01-0.618,0.16-0.872,0.824-0.864c2.762,0.028,5.527,0.021,8.291,0.003c0.566-0.003,0.803,0.171,0.791,0.767
				c-0.029,1.723,0.129,1.499-1.506,1.508c-1.672,0.008-3.344,0.021-5.014-0.009c-0.645-0.011-0.898,0.232-0.855,0.863
				c0.029,0.423,0.004,0.847,0.006,1.271c0.006,0.899,0.066,0.963,0.939,0.965c1.16,0.005,2.318,0.017,3.477-0.004
				c0.537-0.011,0.813,0.138,0.686,0.73c-0.045,0.216-0.018,0.446-0.012,0.667c0.027,0.855,0.029,0.859-0.803,0.862
				c-1.158,0.004-2.318,0.021-3.477-0.007c-0.613-0.015-0.842,0.241-0.816,0.836c0.027,0.645,0,1.293,0.008,1.939
				c0.006,0.851,0.125,0.975,0.965,0.979c1.895,0.007,3.787,0.002,5.684,0.002c0.965,0.002,0.975,0.013,0.977,0.968
				c0,0.111-0.01,0.224,0.002,0.331C136.514,150.505,136.273,150.75,135.617,150.743"/>
			<path clip-path="url(#SVGID_4_)" fill="#FFFFFF" d="M142.441,139.03c0.021,3.608,0.008,7.216,0.006,10.824
				c0,0.843-0.035,0.87-0.855,0.878c-1.561,0.016-1.561,0.016-1.559-1.543v-5.212h-0.039c0-2.093,0.008-4.186-0.006-6.278
				c-0.002-0.311,0.084-0.467,0.398-0.473c0.045-0.002,0.088-0.006,0.135-0.006C142.832,137.243,142.43,136.939,142.441,139.03"/>
			<path clip-path="url(#SVGID_4_)" fill="#FFFFFF" d="M130.738,121.982c-1.352,2.107-2.963,3.946-5.271,5.08
				c-2.178,1.069-4.326,1.151-6.545,0.076c-3.508-1.695-6.668-3.944-9.887-6.103c-0.139-0.093-0.354-0.18-0.262-0.401
				c0.07-0.175,0.27-0.122,0.42-0.124c0.4-0.009,0.803-0.005,1.203-0.005c-0.002,0.009-0.002,0.018-0.002,0.025
				c4.293,0.129,8.59,0.23,12.883,0.399c2.334,0.091,4.666,0.238,7.006,0.247C131.131,121.18,131.193,121.275,130.738,121.982"/>
			<path clip-path="url(#SVGID_4_)" fill="#FFFFFF" d="M103.682,150.08c-1.705-3.822-3.445-7.629-5.039-11.496
				c-0.471-1.14-1.063-1.518-2.221-1.387c-0.541,0.059-0.83,0.217-1.047,0.718c-1.061,2.473-2.158,4.935-3.246,7.397
				c-0.729,1.648-1.467,3.294-2.191,4.943c-0.068,0.16-0.279,0.458,0.031,0.483c0.725,0.058,1.463,0.027,2.191-0.021
				c0.225-0.016,0.297-0.309,0.385-0.512c0.25-0.57,0.508-1.139,0.734-1.721c0.195-0.507,0.545-0.705,1.08-0.699
				c1.293,0.021,2.584-0.006,3.875,0.009c2.076,0.025,1.697-0.302,2.531,1.695c0.619,1.491,0.52,1.216,1.818,1.246
				c0.223,0,0.445-0.013,0.666,0C103.787,150.769,103.918,150.612,103.682,150.08 M98.396,145.635
				c-0.535,0.012-1.072,0.005-1.605,0.005l0,0c-0.512,0-1.025,0.004-1.537,0c-0.484-0.005-0.658-0.234-0.467-0.688
				c0.551-1.29,1.107-2.578,1.666-3.864c0.07-0.161,0.146-0.347,0.371-0.334c0.207,0.013,0.299,0.173,0.371,0.343
				c0.555,1.262,1.111,2.525,1.664,3.79C99.063,145.353,98.928,145.627,98.396,145.635"/>
			<path clip-path="url(#SVGID_4_)" fill="#FFFFFF" d="M123.293,137.871c-1.008,2.856-1.99,5.723-2.98,8.584
				c-0.41,1.178-0.836,2.352-1.219,3.539c-0.168,0.523-0.443,0.758-1.012,0.741c-1.686-0.051-1.354,0.189-1.883-1.341
				c-0.814-2.357-1.697-4.69-2.412-7.079c-0.053-0.177-0.127-0.356-0.344-0.358c-0.297,0-0.322,0.266-0.391,0.469
				c-0.861,2.483-1.742,4.96-2.563,7.458c-0.211,0.643-0.516,0.881-1.189,0.857c-1.281-0.044-1.273-0.013-1.686-1.192
				c-1.332-3.806-2.67-7.609-4.004-11.41c-0.045-0.127-0.064-0.262-0.123-0.382c-0.223-0.452,0.002-0.55,0.4-0.532
				c0.268,0.011,0.535,0.002,0.803,0.002c0.18,0,0.359,0.025,0.533-0.004c0.648-0.104,0.908,0.253,1.08,0.811
				c0.818,2.636,1.654,5.265,2.488,7.897c0.061,0.19,0.115,0.41,0.367,0.412c0.252,0,0.307-0.214,0.371-0.409
				c0.889-2.708,1.793-5.41,2.67-8.122c0.129-0.397,0.322-0.579,0.75-0.598c1.475-0.063,1.504-0.087,1.979,1.297
				c0.844,2.44,1.643,4.896,2.461,7.347c0.066,0.198,0.051,0.498,0.359,0.479c0.27-0.017,0.301-0.28,0.367-0.494
				c0.857-2.673,1.723-5.342,2.572-8.016c0.133-0.424,0.365-0.629,0.82-0.604c0.445,0.023,0.893,0.017,1.338,0.002
				C123.346,137.21,123.465,137.381,123.293,137.871"/>
			<path clip-path="url(#SVGID_4_)" fill="#FEFEFE" d="M134.898,46.943c-0.68,0.87-1.35,1.75-2.039,2.612
				c-5.178,6.46-11.75,10.898-19.617,13.398c-5.773,1.835-11.682,2.282-17.691,1.487c-6.344-0.839-12.135-3.107-17.439-6.65
				c-2.578-1.721-4.941-3.715-7.004-6.037c-1.219-1.375-2.451-2.743-3.48-4.278c-0.129-0.192-0.209-0.45-0.469-0.534
				c-0.506-0.855-1.023-1.702-1.516-2.563c-0.523-0.919-0.309-1.818,0.529-2.298c0.76-0.433,1.625-0.156,2.152,0.69
				c0.492,0.788,0.93,1.609,1.521,2.331c0.967,1.637,2.203,3.068,3.49,4.452c5.008,5.389,11.063,9.062,18.182,10.93
				c4.547,1.195,9.17,1.495,13.844,0.944c9.252-1.088,16.996-5.132,23.367-11.874c1.18-1.248,2.244-2.591,3.229-4
				c0.098-0.14,0.26-0.255,0.232-0.46c0.592-0.695,1.045-1.479,1.508-2.26c0.281-0.475,0.65-0.849,1.232-0.925
				c0.629-0.083,1.143,0.144,1.502,0.661c0.361,0.52,0.4,1.085,0.086,1.637C135.992,45.125,135.439,46.031,134.898,46.943"/>
			<path clip-path="url(#SVGID_4_)" fill="#D4313E" d="M134.898,46.943c0.541-0.912,1.094-1.818,1.619-2.736
				c0.314-0.552,0.275-1.117-0.086-1.637c-0.359-0.518-0.873-0.744-1.502-0.661c-0.582,0.076-0.951,0.45-1.232,0.925
				c-0.463,0.781-0.916,1.564-1.508,2.26c-0.396-0.222-0.539-0.638-0.615-1.016c-0.471-2.405,0.842-4.439,3.145-4.881
				c2.467-0.475,4.65,1.466,4.654,3.85c0,2.199-1.592,3.711-3.627,4.044C135.445,47.14,135.186,46.973,134.898,46.943"/>
			<path clip-path="url(#SVGID_4_)" fill="#D4313E" d="M69.846,45.102c-0.59-0.722-1.029-1.543-1.521-2.331
				c-0.527-0.847-1.393-1.123-2.152-0.688c-0.836,0.478-1.053,1.377-0.529,2.296c0.492,0.861,1.01,1.708,1.516,2.563
				c-2.33,0.291-4.088-1.254-4.48-3.404c-0.32-1.764,1.361-4.115,3.146-4.326c2.262-0.269,3.775,0.622,4.59,2.702
				C70.793,42.883,70.49,44.582,69.846,45.102"/>
		</g>
	</g>
	<g>
		<path fill="#FFFFFF" d="M206.245,64.489l-3.149,9.54h-4.05L209.351,43.7h4.725l10.35,30.329h-4.185l-3.24-9.54H206.245z
			 M216.19,61.43l-2.97-8.729c-0.676-1.979-1.125-3.78-1.575-5.535h-0.09c-0.45,1.8-0.945,3.646-1.53,5.49l-2.97,8.774H216.19z"/>
		<path fill="#FFFFFF" d="M232.705,52.25l4.275,12.239c0.72,1.98,1.305,3.78,1.755,5.58h0.135c0.495-1.8,1.125-3.6,1.845-5.58
			l4.23-12.239h4.14l-8.55,21.779h-3.78l-8.279-21.779H232.705z"/>
		<path fill="#FFFFFF" d="M268.075,74.029l-0.315-2.745h-0.135c-1.215,1.71-3.555,3.24-6.66,3.24c-4.409,0-6.659-3.105-6.659-6.255
			c0-5.265,4.68-8.145,13.094-8.1v-0.45c0-1.8-0.494-5.04-4.949-5.04c-2.025,0-4.14,0.631-5.67,1.62l-0.9-2.609
			c1.801-1.17,4.41-1.936,7.155-1.936c6.659,0,8.279,4.545,8.279,8.91v8.145c0,1.89,0.09,3.734,0.36,5.22H268.075z M267.49,62.915
			c-4.32-0.09-9.225,0.675-9.225,4.904c0,2.565,1.71,3.78,3.734,3.78c2.835,0,4.635-1.8,5.265-3.646
			c0.135-0.404,0.226-0.854,0.226-1.26V62.915z"/>
		<path fill="#FFFFFF" d="M285.489,46.131c0.045,1.35-0.944,2.43-2.52,2.43c-1.395,0-2.385-1.08-2.385-2.43
			c0-1.396,1.035-2.476,2.475-2.476C284.545,43.655,285.489,44.735,285.489,46.131z M281.08,74.029V52.25h3.96v21.779H281.08z"/>
		<path fill="#FFFFFF" d="M294.985,42.081h3.96v31.948h-3.96V42.081z"/>
		<path fill="#FFFFFF" d="M321.039,74.029l-0.315-2.745h-0.135c-1.215,1.71-3.555,3.24-6.66,3.24c-4.409,0-6.659-3.105-6.659-6.255
			c0-5.265,4.68-8.145,13.094-8.1v-0.45c0-1.8-0.494-5.04-4.949-5.04c-2.025,0-4.14,0.631-5.67,1.62l-0.9-2.609
			c1.801-1.17,4.41-1.936,7.155-1.936c6.659,0,8.279,4.545,8.279,8.91v8.145c0,1.89,0.09,3.734,0.36,5.22H321.039z M320.454,62.915
			c-4.32-0.09-9.225,0.675-9.225,4.904c0,2.565,1.71,3.78,3.734,3.78c2.835,0,4.635-1.8,5.265-3.646
			c0.135-0.404,0.226-0.854,0.226-1.26V62.915z"/>
		<path fill="#FFFFFF" d="M333.864,74.029c0.091-1.485,0.181-3.689,0.181-5.625V42.081h3.915V55.76h0.09
			c1.395-2.43,3.914-4.005,7.425-4.005c5.399,0,9.225,4.5,9.179,11.115c0,7.784-4.904,11.654-9.764,11.654
			c-3.15,0-5.67-1.215-7.29-4.095h-0.135l-0.181,3.6H333.864z M337.96,65.3c0,0.495,0.09,0.99,0.18,1.439
			c0.765,2.745,3.06,4.635,5.939,4.635c4.14,0,6.615-3.374,6.615-8.369c0-4.365-2.25-8.1-6.48-8.1c-2.699,0-5.22,1.845-6.029,4.859
			c-0.09,0.45-0.225,0.99-0.225,1.62V65.3z"/>
		<path fill="#FFFFFF" d="M363.024,42.081h3.96v31.948h-3.96V42.081z"/>
		<path fill="#FFFFFF" d="M379.224,63.859c0.09,5.355,3.51,7.56,7.469,7.56c2.835,0,4.545-0.494,6.03-1.124l0.675,2.834
			c-1.395,0.631-3.779,1.351-7.244,1.351c-6.705,0-10.71-4.41-10.71-10.979c0-6.57,3.87-11.745,10.215-11.745
			c7.109,0,8.999,6.255,8.999,10.26c0,0.811-0.09,1.44-0.135,1.845H379.224z M390.833,61.024c0.045-2.52-1.035-6.435-5.49-6.435
			c-4.005,0-5.76,3.69-6.074,6.435H390.833z"/>
		<path fill="#FFFFFF" d="M435.562,62.96c0,8.055-5.58,11.564-10.845,11.564c-5.895,0-10.439-4.32-10.439-11.205
			c0-7.289,4.77-11.564,10.8-11.564C431.332,51.755,435.562,56.3,435.562,62.96z M418.282,63.185c0,4.77,2.745,8.37,6.614,8.37
			c3.78,0,6.615-3.555,6.615-8.46c0-3.689-1.845-8.37-6.524-8.37C420.307,54.725,418.282,59.045,418.282,63.185z"/>
		<path fill="#FFFFFF" d="M443.933,58.145c0-2.249-0.045-4.095-0.181-5.895h3.51l0.226,3.6h0.09c1.08-2.069,3.6-4.095,7.2-4.095
			c3.015,0,7.694,1.8,7.694,9.27v13.005h-3.96V61.475c0-3.51-1.305-6.435-5.04-6.435c-2.609,0-4.635,1.845-5.31,4.05
			c-0.18,0.495-0.27,1.17-0.27,1.845v13.095h-3.96V58.145z"/>
		<path fill="#FFFFFF" d="M489.967,45.995v6.255h5.67v3.015h-5.67V67.01c0,2.699,0.765,4.229,2.97,4.229
			c1.035,0,1.8-0.135,2.295-0.27l0.18,2.97c-0.765,0.314-1.979,0.54-3.51,0.54c-1.845,0-3.329-0.585-4.274-1.665
			c-1.125-1.17-1.53-3.105-1.53-5.67v-11.88h-3.375V52.25h3.375v-5.22L489.967,45.995z"/>
		<path fill="#FFFFFF" d="M503.467,42.081h3.96V55.67h0.09c0.63-1.125,1.62-2.115,2.835-2.79c1.17-0.675,2.564-1.125,4.05-1.125
			c2.925,0,7.604,1.8,7.604,9.315v12.959h-3.96V61.52c0-3.51-1.305-6.479-5.04-6.479c-2.564,0-4.59,1.8-5.31,3.96
			c-0.225,0.54-0.27,1.125-0.27,1.89v13.14h-3.96V42.081z"/>
		<path fill="#FFFFFF" d="M534.021,63.859c0.09,5.355,3.51,7.56,7.47,7.56c2.834,0,4.544-0.494,6.029-1.124l0.675,2.834
			c-1.395,0.631-3.779,1.351-7.244,1.351c-6.705,0-10.71-4.41-10.71-10.979c0-6.57,3.87-11.745,10.215-11.745
			c7.109,0,8.999,6.255,8.999,10.26c0,0.811-0.09,1.44-0.135,1.845H534.021z M545.631,61.024c0.045-2.52-1.035-6.435-5.49-6.435
			c-4.005,0-5.76,3.69-6.074,6.435H545.631z"/>
	</g>
	<g>
		<path fill="#FFFFFF" d="M223.594,133.395l-3.12,11.245h-10.27l13.39-43.812h13.001l13.585,43.812h-10.66l-3.38-11.245H223.594z
			 M234.71,125.984l-2.73-9.296c-0.78-2.6-1.56-5.851-2.21-8.45h-0.13c-0.65,2.6-1.3,5.915-2.016,8.45l-2.6,9.296H234.71z"/>
		<path fill="#FFFFFF" d="M256.938,123.514c0-4.16-0.13-7.735-0.26-10.66h8.58l0.455,4.42h0.13c2.341-3.38,5.98-5.135,10.596-5.135
			c6.955,0,13.195,6.045,13.195,16.186c0,11.57-7.345,17.03-14.431,17.03c-3.835,0-6.825-1.56-8.255-3.64h-0.13v15.795h-9.881
			V123.514z M266.819,130.989c0,0.78,0.064,1.495,0.194,2.08c0.65,2.665,2.926,4.68,5.786,4.68c4.29,0,6.825-3.575,6.825-8.97
			c0-5.07-2.275-8.905-6.695-8.905c-2.795,0-5.266,2.08-5.916,5.005c-0.13,0.52-0.194,1.17-0.194,1.755V130.989z"/>
		<path fill="#FFFFFF" d="M297.433,123.514c0-4.16-0.13-7.735-0.26-10.66h8.58l0.455,4.42h0.13c2.341-3.38,5.98-5.135,10.596-5.135
			c6.955,0,13.195,6.045,13.195,16.186c0,11.57-7.345,17.03-14.431,17.03c-3.835,0-6.825-1.56-8.255-3.64h-0.13v15.795h-9.881
			V123.514z M307.313,130.989c0,0.78,0.064,1.495,0.194,2.08c0.65,2.665,2.926,4.68,5.786,4.68c4.29,0,6.825-3.575,6.825-8.97
			c0-5.07-2.275-8.905-6.695-8.905c-2.795,0-5.266,2.08-5.916,5.005c-0.13,0.52-0.194,1.17-0.194,1.755V130.989z"/>
		<path fill="#FFFFFF" d="M374.849,142.625c-3.056,1.04-8.841,2.47-14.626,2.47c-7.995,0-13.78-2.015-17.811-5.915
			c-4.03-3.771-6.24-9.49-6.175-15.926c0.064-14.561,10.66-22.881,25.025-22.881c5.655,0,10.011,1.105,12.155,2.145l-2.08,7.931
			c-2.404-1.04-5.395-1.885-10.205-1.885c-8.255,0-14.495,4.68-14.495,14.17c0,9.036,5.655,14.366,13.78,14.366
			c2.275,0,4.095-0.26,4.875-0.65v-9.165h-6.76v-7.735h16.315V142.625z"/>
		<path fill="#FFFFFF" d="M402.473,144.64l-0.585-3.186h-0.195c-2.08,2.535-5.33,3.9-9.101,3.9c-6.436,0-10.271-4.68-10.271-9.75
			c0-8.256,7.41-12.221,18.656-12.155v-0.455c0-1.69-0.91-4.096-5.785-4.096c-3.25,0-6.695,1.105-8.775,2.405l-1.82-6.37
			c2.21-1.235,6.565-2.795,12.351-2.795c10.596,0,13.976,6.24,13.976,13.715v11.051c0,3.055,0.13,5.98,0.455,7.735H402.473z
			 M401.303,129.624c-5.2-0.065-9.23,1.17-9.23,5.005c0,2.535,1.689,3.771,3.899,3.771c2.471,0,4.485-1.625,5.136-3.64
			c0.13-0.521,0.195-1.105,0.195-1.69V129.624z"/>
		<path fill="#FFFFFF" d="M420.346,98.488h9.881v46.151h-9.881V98.488z"/>
		<path fill="#FFFFFF" d="M439.846,98.488h9.881v46.151h-9.881V98.488z"/>
		<path fill="#FFFFFF" d="M466.951,131.899c0.325,4.095,4.355,6.045,8.971,6.045c3.38,0,6.11-0.455,8.775-1.3l1.3,6.695
			c-3.25,1.3-7.216,1.95-11.506,1.95c-10.79,0-16.965-6.24-16.965-16.186c0-8.061,5.005-16.966,16.056-16.966
			c10.27,0,14.17,7.995,14.17,15.86c0,1.69-0.195,3.186-0.325,3.9H466.951z M478.587,125.139c0-2.405-1.04-6.435-5.591-6.435
			c-4.16,0-5.85,3.77-6.109,6.435H478.587z"/>
		<path fill="#FFFFFF" d="M495.29,123.318c0-4.68-0.13-7.734-0.26-10.465h8.516l0.325,5.851h0.26
			c1.625-4.615,5.525-6.565,8.58-6.565c0.91,0,1.365,0,2.08,0.13v9.295c-0.715-0.13-1.56-0.26-2.665-0.26
			c-3.64,0-6.11,1.95-6.761,5.005c-0.13,0.65-0.194,1.431-0.194,2.211v16.12h-9.881V123.318z"/>
		<path fill="#FFFFFF" d="M530.194,112.854l4.745,15.601c0.521,1.885,1.171,4.226,1.561,5.915h0.195
			c0.455-1.689,0.975-4.095,1.43-5.915l3.9-15.601h10.596l-7.411,20.931c-4.55,12.61-7.604,17.681-11.18,20.866
			c-3.445,2.99-7.086,4.029-9.556,4.354l-2.08-8.385c1.235-0.195,2.795-0.78,4.29-1.69c1.495-0.78,3.12-2.34,4.095-3.965
			c0.325-0.455,0.521-0.976,0.521-1.431c0-0.324-0.065-0.845-0.455-1.625l-11.636-29.056H530.194z"/>
	</g>
</g>
<g id="Layer_3">
</g>
</svg>
