<?xml version="1.0" encoding="utf-8"?>
<!-- Generator: Adobe Illustrator 16.0.0, SVG Export Plug-In . SVG Version: 6.00 Build 0)  -->
<!DOCTYPE svg PUBLIC "-//W3C//DTD SVG 1.1//EN" "http://www.w3.org/Graphics/SVG/1.1/DTD/svg11.dtd">
<svg version="1.1" xmlns="http://www.w3.org/2000/svg" xmlns:xlink="http://www.w3.org/1999/xlink" x="0px" y="0px"
	 width="589.341px" height="192.779px" viewBox="0 0 589.341 192.779" enable-background="new 0 0 589.341 192.779"
	 xml:space="preserve">
<g id="Layer_2">
</g>
<g id="Layer_1">
	<g>
		<path d="M589.341,166.716c0,14.398-11.65,26.063-26.048,26.063H26.063C11.653,192.779,0,181.114,0,166.716V26.053
			C0,11.658,11.653,0,26.063,0h537.23c14.397,0,26.048,11.658,26.048,26.053V166.716z"/>
		<g id="PLAY_4_">
			<defs>
				<path id="SVGID_9_" d="M127.723,84.843l-26.588-15.33c0,0-48.408-27.962-51.25-29.602c-2.857-1.64-5.671-0.646-5.671,2.788
					c0,5.725,0,59.69,0,59.69s0,58.317,0,60.894c0,2.573,2.011,3.681,4.472,2.252c2.492-1.429,52.449-30.279,52.449-30.279
					l26.566-15.33c0,0,22.557-13.024,25.567-14.756c2.974-1.727,2.7-4.106,0.16-5.462C150.896,98.341,127.723,84.843,127.723,84.843
					z"/>
			</defs>
			<clipPath id="SVGID_1_">
				<use xlink:href="#SVGID_9_"  overflow="visible"/>
			</clipPath>
			<linearGradient id="SVGID_2_" gradientUnits="userSpaceOnUse" x1="77.127" y1="37.1123" x2="77.1269" y2="167.6563">
				<stop  offset="0" style="stop-color:#257DB0"/>
				<stop  offset="0.208" style="stop-color:#3C90B3"/>
				<stop  offset="0.7416" style="stop-color:#73BDB9"/>
				<stop  offset="1" style="stop-color:#89CEBC"/>
			</linearGradient>
			<polygon clip-path="url(#SVGID_1_)" fill="url(#SVGID_2_)" points="44.214,37.112 44.214,102.39 44.214,167.656 110.041,102.39 
							"/>
			<linearGradient id="SVGID_4_" gradientUnits="userSpaceOnUse" x1="44.2139" y1="69.5088" x2="127.7227" y2="69.5088">
				<stop  offset="0" style="stop-color:#51BFAC"/>
				<stop  offset="1" style="stop-color:#DEE899"/>
			</linearGradient>
			<polygon clip-path="url(#SVGID_1_)" fill="url(#SVGID_4_)" points="127.723,84.843 101.135,69.513 44.214,36.628 44.214,37.112 
				110.041,102.39 			"/>
			<linearGradient id="SVGID_5_" gradientUnits="userSpaceOnUse" x1="85.957" y1="102.3896" x2="85.957" y2="168.1406">
				<stop  offset="0" style="stop-color:#EB403D"/>
				<stop  offset="0.1937" style="stop-color:#D64252"/>
				<stop  offset="0.7369" style="stop-color:#9F4887"/>
				<stop  offset="1" style="stop-color:#894A9C"/>
			</linearGradient>
			<polygon clip-path="url(#SVGID_1_)" fill="url(#SVGID_5_)" points="44.214,167.656 44.214,168.141 101.135,135.256 
				127.701,119.926 110.041,102.39 			"/>
			<linearGradient id="SVGID_6_" gradientUnits="userSpaceOnUse" x1="134.0596" y1="84.8428" x2="134.0596" y2="119.9258">
				<stop  offset="0" style="stop-color:#F48779"/>
				<stop  offset="0.6121" style="stop-color:#FAB076"/>
				<stop  offset="1" style="stop-color:#FDC674"/>
			</linearGradient>
			<polygon clip-path="url(#SVGID_1_)" fill="url(#SVGID_6_)" points="127.723,84.843 110.041,102.39 127.701,119.926 
				158.078,102.39 			"/>
		</g>
		<g>
			<path fill="#F9F9F9" d="M458.67,127.906c-2.493,0-4.734-0.452-6.786-1.374c-2.037-0.907-3.775-2.311-5.153-4.209h-0.393
				c0.273,2.223,0.393,4.325,0.393,6.308v15.619h-5.742V89.241h4.686l0.795,5.197h0.262c1.502-2.077,3.215-3.579,5.179-4.501
				c1.957-0.914,4.194-1.385,6.761-1.385c5.014,0,8.906,1.724,11.653,5.156c2.722,3.451,4.1,8.272,4.1,14.482
				c0,6.242-1.403,11.082-4.173,14.544C467.459,126.179,463.6,127.906,458.67,127.906z M457.82,93.439
				c-3.874,0-6.68,1.064-8.418,3.211c-1.738,2.149-2.624,5.575-2.672,10.266v1.275c0,5.339,0.887,9.157,2.672,11.461
				c1.789,2.281,4.643,3.433,8.561,3.433c3.286,0,5.863-1.323,7.721-3.973c1.848-2.66,2.781-6.322,2.781-10.99
				c0-4.733-0.934-8.353-2.781-10.896C463.826,94.7,461.198,93.439,457.82,93.439z"/>
			<path fill="#F9F9F9" d="M487.731,127.214h-5.755V73.31h5.755V127.214z"/>
			<path fill="#F9F9F9" d="M520.795,127.214l-1.152-5.404h-0.276c-1.902,2.383-3.775,3.986-5.659,4.832
				c-1.892,0.842-4.238,1.265-7.059,1.265c-3.754,0-6.698-0.97-8.834-2.908c-2.135-1.949-3.214-4.705-3.214-8.279
				c0-7.671,6.137-11.698,18.388-12.055l6.439-0.219v-2.347c0-2.985-0.623-5.183-1.92-6.6c-1.269-1.425-3.331-2.125-6.137-2.125
				c-3.178,0-6.76,0.962-10.743,2.908l-1.761-4.402c1.87-1.021,3.922-1.818,6.141-2.391c2.23-0.575,4.461-0.871,6.713-0.871
				c4.519,0,7.879,1.01,10.058,3.021c2.183,2.008,3.258,5.229,3.258,9.66v25.914H520.795z M507.799,123.161
				c3.586,0,6.378-0.983,8.44-2.944c2.048-1.961,3.058-4.704,3.058-8.247v-3.425l-5.754,0.233c-4.57,0.167-7.857,0.885-9.891,2.135
				c-2.019,1.261-3.024,3.215-3.024,5.875c0,2.08,0.627,3.662,1.896,4.737C503.77,122.618,505.521,123.161,507.799,123.161z"/>
			<path fill="#F9F9F9" d="M528.396,89.241h6.158l8.309,21.657c1.822,4.941,2.952,8.51,3.404,10.703h0.276
				c0.303-1.174,0.933-3.196,1.873-6.046c0.97-2.86,4.11-11.621,9.409-26.314h6.162l-16.293,43.238
				c-1.617,4.271-3.523,7.307-5.685,9.1c-2.153,1.781-4.804,2.671-7.944,2.671c-1.749,0-3.491-0.179-5.203-0.587v-4.606
				c1.293,0.277,2.695,0.423,4.264,0.423c3.972,0,6.777-2.216,8.469-6.646l2.109-5.408L528.396,89.241z"/>
		</g>
		<g>
			<path fill="#F9F9F9" d="M352.121,92.776c1.83,1.505,5.656,4.68,5.656,10.714c0,5.874-3.33,8.666-6.69,11.282
				c-1.028,1.035-2.204,2.15-2.204,3.892c0,1.746,1.176,2.701,2.059,3.415l2.863,2.212c3.506,2.948,6.67,5.638,6.67,11.133
				c0,7.452-7.227,14.996-20.896,14.996c-11.519,0-17.083-5.478-17.083-11.355c0-2.857,1.439-6.902,6.13-9.687
				c4.926-3.021,11.603-3.407,15.174-3.655c-1.127-1.432-2.398-2.926-2.398-5.396c0-1.345,0.395-2.143,0.806-3.09
				c-0.878,0.072-1.738,0.152-2.54,0.152c-8.418,0-13.178-6.274-13.178-12.463c0-3.655,1.666-7.707,5.059-10.645
				c4.533-3.735,9.949-4.361,14.241-4.361h16.354l-5.098,2.856H352.121z M346.495,128.037c-0.634-0.084-1.027-0.084-1.833-0.084
				c-0.707,0-4.996,0.164-8.319,1.275c-1.764,0.635-6.858,2.536-6.858,8.178s5.488,9.693,13.979,9.693
				c7.624,0,11.691-3.67,11.691-8.582C355.154,134.466,352.516,132.326,346.495,128.037z M348.787,112.947
				c1.834-1.833,2.001-4.366,2.001-5.798c0-5.722-3.425-14.606-10.021-14.606c-2.063,0-4.293,1.028-5.55,2.605
				c-1.342,1.673-1.738,3.815-1.738,5.878c0,5.324,3.09,14.14,9.912,14.14C345.391,115.166,347.526,114.223,348.787,112.947z"/>
			<path fill="#F9F9F9" d="M302.139,126.755c-12.608,0-19.347-9.825-19.347-18.702c0-10.386,8.487-19.263,20.55-19.263
				c11.625,0,18.928,9.106,18.928,18.713C322.27,116.85,315.064,126.755,302.139,126.755z M312.043,120.341
				c1.918-2.544,2.384-5.714,2.384-8.805c0-6.975-3.315-20.298-13.147-20.298c-2.628,0-5.227,1.035-7.158,2.712
				c-3.068,2.762-3.633,6.253-3.633,9.668c0,7.849,3.87,20.757,13.487,20.757C307.044,124.375,310.232,122.877,312.043,120.341z"/>
			<path fill="#F9F9F9" d="M259.152,126.755c-12.59,0-19.35-9.825-19.35-18.702c0-10.386,8.498-19.263,20.545-19.263
				c11.654,0,18.957,9.106,18.957,18.713C279.305,116.85,272.074,126.755,259.152,126.755z M269.079,120.341
				c1.888-2.544,2.361-5.714,2.361-8.805c0-6.975-3.323-20.298-13.155-20.298c-2.602,0-5.226,1.035-7.128,2.712
				c-3.098,2.762-3.659,6.253-3.659,9.668c0,7.849,3.893,20.757,13.487,20.757C264.08,124.375,267.242,122.877,269.079,120.341z"/>
			<path fill="#F9F9F9" d="M233.76,125.526l-11.406,2.624c-4.613,0.714-8.771,1.348-13.158,1.348c-22,0-30.367-16.184-30.367-28.857
				c0-15.455,11.895-29.791,32.226-29.791c4.289,0,8.437,0.627,12.189,1.658c5.962,1.677,8.753,3.754,10.517,4.952l-6.617,6.294
				l-2.791,0.634l1.989-3.185c-2.696-2.628-7.638-7.496-17.048-7.496c-12.59,0-22.098,9.565-22.098,23.519
				c0,14.975,10.859,29.088,28.221,29.088c5.108,0,7.732-1.031,10.131-2.001v-12.823l-12.033,0.638l6.377-3.426h16.891l-2.066,1.99
				c-0.561,0.474-0.631,0.645-0.802,1.261c-0.08,0.736-0.153,3.043-0.153,3.837V125.526z"/>
			<path fill="#F9F9F9" d="M377.332,123.224c-2.652-0.244-3.188-0.715-3.188-3.83v-0.867V74.282c0.021-0.179,0.021-0.35,0.048-0.518
				c0.32-2.78,1.104-3.254,3.582-4.704h-11.385l-5.984,2.879h6.09v0.029l-0.025-0.029v46.587v2.627c0,1.589-0.299,1.826-2.135,4.217
				h14.099l2.966-1.746C380.029,123.468,378.695,123.376,377.332,123.224z"/>
			<path fill="#F9F9F9" d="M409.771,123.956c-0.877,0.48-1.741,1.042-2.602,1.428c-2.627,1.185-5.32,1.502-7.696,1.502
				c-2.532,0-6.497-0.164-10.528-3.087c-5.63-3.961-8.064-10.775-8.064-16.704c0-12.271,9.96-18.283,18.127-18.283
				c2.842,0,5.765,0.715,8.162,2.212c3.929,2.624,4.963,6.021,5.525,7.839l-18.593,7.525l-6.101,0.466
				c1.979,10.051,8.775,15.914,16.305,15.914c4.025,0,6.963-1.432,9.66-2.766L409.771,123.956z M402.338,100.363
				c1.498-0.554,2.267-1.027,2.267-2.135c0-3.167-3.538-6.801-7.827-6.801c-3.167,0-9.1,2.449-9.1,10.995
				c0,1.348,0.168,2.772,0.229,4.201L402.338,100.363z"/>
			<g>
				<path fill="#F9F9F9" d="M417.422,89.354v5.226h-0.66v-5.226h-1.717v-0.543h4.078v0.543H417.422z"/>
				<path fill="#F9F9F9" d="M424.516,94.58V89.3h-0.025l-1.617,5.28h-0.492l-1.618-5.28h-0.021v5.28h-0.591v-5.769h1.021l1.45,4.665
					h0.021l1.459-4.665h0.977v5.769H424.516z"/>
			</g>
		</g>
		<g>
			<path fill="#F9F9F9" d="M194.654,55.318h-3.932c0-0.539-0.371-2.084-1.126-4.628h-5.722c-0.775,2.496-1.173,4.041-1.173,4.628
				h-3.728c0-0.328,0.954-2.963,2.9-7.926c1.932-4.964,2.887-7.689,2.887-8.188h4.664c0,0.478,0.875,3.159,2.623,8.071
				C193.791,52.188,194.654,54.874,194.654,55.318z M188.959,48.314c-1.425-4.253-2.135-6.556-2.135-6.905h-0.189
				c0,0.327-0.723,2.627-2.172,6.905H188.959z"/>
			<path fill="#F9F9F9" d="M210.635,55.318h-3.058c0-0.339-1.141-2.124-3.394-5.36c-2.396-3.411-3.753-5.743-4.088-6.997h-0.179
				c0.2,1.822,0.302,3.447,0.302,4.897c0,2.049,0.07,4.53,0.19,7.46h-3.058c0.12-2.551,0.193-5.368,0.193-8.429
				c0-3.014-0.073-5.568-0.193-7.686h3.67c0,0.438,1.031,2.183,3.068,5.233c2.157,3.254,3.403,5.44,3.728,6.599h0.193
				c-0.193-1.836-0.313-3.494-0.313-4.959c0-2.224-0.051-4.526-0.16-6.873h3.098c-0.124,2.044-0.168,4.609-0.168,7.686
				C210.467,49.998,210.511,52.801,210.635,55.318z"/>
			<path fill="#F9F9F9" d="M228.567,46.704c0,2.347-0.743,4.391-2.241,6.144c-1.509,1.745-3.619,2.62-6.318,2.62
				c-1.211,0-2.901-0.059-5.059-0.149c0.109-2.492,0.16-5.299,0.16-8.429c0-3.003-0.051-5.568-0.16-7.686h2.183
				c0.347,0,0.864-0.021,1.571-0.044c0.695-0.021,1.173-0.036,1.377-0.036c2.984,0,5.146,0.754,6.476,2.227
				C227.896,42.841,228.567,44.619,228.567,46.704z M225.2,47.247c0-1.607-0.478-2.931-1.389-4.017
				c-0.94-1.078-2.339-1.629-4.245-1.629c-0.35,0-0.842,0.033-1.454,0.113c0.095,1.654,0.124,3.382,0.124,5.175
				c0,1.968,0.043,3.929,0.131,5.859c0.514,0.12,1.05,0.164,1.593,0.164c1.786,0,3.104-0.547,3.946-1.646
				C224.767,50.162,225.2,48.828,225.2,47.247z"/>
			<path fill="#F9F9F9" d="M245.111,55.318h-3.67c-0.954-2.923-1.69-4.723-2.204-5.4c-0.514-0.696-1.33-1.039-2.456-1.039
				c-0.492,0-0.937,0-1.377,0.012c0,2.124,0.047,4.267,0.105,6.428h-3.44c0.12-2.492,0.167-5.299,0.167-8.429
				c0-3.003-0.047-5.568-0.167-7.686h2.136c0.251,0,0.766-0.021,1.566-0.044c0.77-0.021,1.502-0.036,2.184-0.036
				c3.778,0,5.67,1.301,5.67,3.892c0,2.06-1.075,3.484-3.24,4.293v0.189c0.831,0.223,1.553,0.878,2.188,1.942
				C243.205,50.512,244.044,52.469,245.111,55.318z M240.458,43.938c0-1.646-1.05-2.471-3.163-2.471
				c-0.766,0-1.45,0.063-2.033,0.168c0.095,1.294,0.116,2.955,0.116,5.011c0.467,0.007,0.839,0.021,1.163,0.021
				C239.153,46.667,240.458,45.749,240.458,43.938z"/>
			<path fill="#F9F9F9" d="M262.855,46.959c0,2.532-0.77,4.632-2.318,6.308c-1.566,1.666-3.473,2.5-5.765,2.5
				c-2.179,0-3.991-0.758-5.466-2.303c-1.487-1.534-2.205-3.466-2.205-5.835c0-2.532,0.766-4.639,2.314-6.297
				c1.559-1.669,3.477-2.503,5.779-2.503c2.179,0,3.979,0.765,5.466,2.284C262.133,42.645,262.855,44.59,262.855,46.959z
				 M259.437,47.319c0-1.72-0.44-3.112-1.319-4.194c-0.881-1.063-1.96-1.604-3.279-1.604c-1.188,0-2.219,0.54-3.047,1.618
				c-0.838,1.075-1.275,2.449-1.275,4.107c0,1.705,0.459,3.101,1.319,4.18c0.89,1.078,1.993,1.618,3.265,1.618
				c1.225,0,2.23-0.551,3.068-1.629C259.018,50.326,259.437,48.963,259.437,47.319z"/>
			<path fill="#F9F9F9" d="M269.844,55.318h-3.49c0.098-2.551,0.171-5.368,0.171-8.429c0-3.014-0.073-5.568-0.171-7.686h3.49
				c-0.087,2.081-0.156,4.632-0.156,7.686C269.688,49.998,269.757,52.812,269.844,55.318z"/>
			<path fill="#F9F9F9" d="M287.788,46.704c0,2.347-0.751,4.391-2.252,6.144c-1.497,1.745-3.608,2.62-6.304,2.62
				c-1.225,0-2.916-0.059-5.048-0.149c0.095-2.492,0.164-5.299,0.164-8.429c0-3.003-0.069-5.568-0.164-7.686h2.157
				c0.361,0,0.9-0.021,1.593-0.044c0.707-0.021,1.151-0.036,1.37-0.036c2.974,0,5.127,0.754,6.472,2.227
				C287.133,42.841,287.788,44.619,287.788,46.704z M284.41,47.247c0-1.607-0.471-2.931-1.381-4.017
				c-0.908-1.078-2.348-1.629-4.221-1.629c-0.379,0-0.849,0.033-1.486,0.113c0.098,1.654,0.149,3.382,0.149,5.175
				c0,1.968,0.022,3.929,0.12,5.859c0.539,0.12,1.075,0.164,1.589,0.164c1.786,0,3.098-0.547,3.972-1.646
				C283.99,50.162,284.41,48.828,284.41,47.247z"/>
			<path fill="#F9F9F9" d="M311.6,55.318h-3.969c0-0.539-0.372-2.084-1.127-4.628h-5.717c-0.783,2.496-1.152,4.041-1.152,4.628
				h-3.728c0-0.328,0.955-2.963,2.886-7.926c1.921-4.964,2.879-7.689,2.879-8.188h4.688c0,0.478,0.874,3.159,2.615,8.071
				C310.725,52.188,311.6,54.874,311.6,55.318z M305.871,48.314c-1.404-4.253-2.111-6.556-2.111-6.905h-0.178
				c0,0.327-0.758,2.627-2.209,6.905H305.871z"/>
			<path fill="#F9F9F9" d="M326.045,43.417c0,1.979-0.755,3.437-2.209,4.373c-1.45,0.939-3.258,1.41-5.393,1.41
				c-0.373,0-0.656,0-0.824-0.025c0,1.56,0.043,3.6,0.139,6.144h-3.484c0.105-2.395,0.153-5.189,0.153-8.429
				c0-2.967-0.048-5.539-0.153-7.686h2.158c0.299,0,0.889-0.021,1.748-0.044c0.875-0.021,1.619-0.036,2.252-0.036
				c1.575,0,2.895,0.354,3.994,1.071C325.505,40.892,326.045,41.974,326.045,43.417z M322.859,44.105
				c0-1.771-1.178-2.642-3.527-2.642c-0.59,0-1.21,0.058-1.848,0.171c0.072,1.563,0.109,3.334,0.109,5.302
				c0.215,0.022,0.455,0.022,0.732,0.022C321.336,46.959,322.859,46.008,322.859,44.105z"/>
			<path fill="#F9F9F9" d="M340.887,43.417c0,1.979-0.758,3.437-2.205,4.373c-1.449,0.939-3.265,1.41-5.393,1.41
				c-0.375,0-0.664,0-0.816-0.025c0,1.56,0.043,3.6,0.146,6.144h-3.505c0.123-2.395,0.167-5.189,0.167-8.429
				c0-2.967-0.044-5.539-0.167-7.686h2.156c0.299,0,0.89-0.021,1.764-0.044c0.864-0.021,1.619-0.036,2.252-0.036
				c1.575,0,2.879,0.354,3.98,1.071C340.348,40.892,340.887,41.974,340.887,43.417z M337.698,44.105
				c0-1.771-1.173-2.642-3.513-2.642c-0.59,0-1.225,0.058-1.885,0.171c0.1,1.563,0.143,3.334,0.143,5.302
				c0.204,0.022,0.445,0.022,0.722,0.022C336.176,46.959,337.698,46.008,337.698,44.105z"/>
			<path fill="#F9F9F9" d="M365.16,46.959c0,2.532-0.775,4.632-2.346,6.308c-1.546,1.666-3.467,2.5-5.744,2.5
				c-2.183,0-4.016-0.758-5.466-2.303c-1.472-1.534-2.208-3.466-2.208-5.835c0-2.532,0.779-4.639,2.324-6.297
				c1.549-1.669,3.469-2.503,5.744-2.503c2.186,0,4.016,0.765,5.491,2.284C364.41,42.645,365.16,44.59,365.16,46.959z
				 M361.734,47.319c0-1.72-0.443-3.112-1.33-4.194c-0.877-1.063-1.979-1.604-3.261-1.604c-1.199,0-2.23,0.54-3.068,1.618
				c-0.853,1.075-1.272,2.449-1.272,4.107c0,1.705,0.445,3.101,1.33,4.18c0.9,1.078,1.979,1.618,3.262,1.618
				c1.221,0,2.23-0.551,3.08-1.629C361.313,50.326,361.734,48.963,361.734,47.319z"/>
			<path fill="#F9F9F9" d="M381.931,55.318h-3.054c0-0.339-1.151-2.124-3.414-5.36c-2.373-3.411-3.732-5.743-4.063-6.997h-0.183
				c0.205,1.822,0.299,3.447,0.299,4.897c0,2.049,0.073,4.53,0.189,7.46h-3.053c0.115-2.551,0.189-5.368,0.189-8.429
				c0-3.014-0.074-5.568-0.189-7.686h3.666c0,0.438,1.031,2.183,3.068,5.233c2.16,3.254,3.396,5.44,3.73,6.599h0.189
				c-0.189-1.836-0.306-3.494-0.306-4.959c0-2.224-0.051-4.526-0.175-6.873h3.104c-0.116,2.044-0.163,4.609-0.163,7.686
				C381.768,49.998,381.814,52.801,381.931,55.318z"/>
		</g>
	</g>
</g>
<g id="Layer_3">
</g>
</svg>
