<?xml version="1.0" encoding="utf-8"?>
<!-- Generator: Adobe Illustrator 16.0.0, SVG Export Plug-In . SVG Version: 6.00 Build 0)  -->
<!DOCTYPE svg PUBLIC "-//W3C//DTD SVG 1.1//EN" "http://www.w3.org/Graphics/SVG/1.1/DTD/svg11.dtd">
<svg version="1.1" xmlns="http://www.w3.org/2000/svg" xmlns:xlink="http://www.w3.org/1999/xlink" x="0px" y="0px"
	 width="601.137px" height="196.627px" viewBox="0 0 601.137 196.627" enable-background="new 0 0 601.137 196.627"
	 xml:space="preserve">
<g id="Layer_2">
</g>
<g id="Layer_1">
	<g>
		<path d="M601.137,170.054c0,14.679-11.912,26.573-26.565,26.573H26.564C11.895,196.627,0,184.732,0,170.054V26.573
			C0,11.888,11.895,0,26.564,0h548.007c14.653,0,26.565,11.888,26.565,26.573V170.054z"/>
		<g>
			<path fill="#FFFFFF" d="M156.756,129.983c-3.186,7.04-4.709,10.192-8.822,16.42c-5.696,8.714-13.764,19.544-23.749,19.639
				c-8.87,0.084-11.144-5.776-23.169-5.707c-12.063,0.059-14.57,5.806-23.439,5.736c-9.985-0.099-17.635-9.887-23.334-18.589
				C38.256,123.14,36.59,94.584,46.434,79.396C53.441,68.612,64.5,62.29,74.879,62.29c10.583,0,17.236,5.805,25.998,5.805
				c8.482,0,13.672-5.813,25.888-5.813c9.263,0,19.04,5.04,26.026,13.738C129.936,88.557,133.63,121.241,156.756,129.983z"/>
			<g>
				<path fill="#FFFFFF" d="M117.494,52.556c4.441-5.699,7.82-13.756,6.596-21.995c-7.273,0.499-15.765,5.123-20.713,11.147
					c-4.498,5.466-8.222,13.585-6.779,21.445C104.527,63.404,112.734,58.675,117.494,52.556z"/>
			</g>
		</g>
		<g>
			<g>
				<path fill="#FFFFFF" d="M205.438,79.034l-22.877,67.406h10.477l6.854-20.703h22.152l7.037,20.703h10.769l-22.987-67.406H205.438
					z M210.886,90.12c0.78,2.999,1.618,6.129,2.675,9.508l6.199,17.87h-17.576l6.078-17.991
					C209.195,96.588,210.069,93.437,210.886,90.12z"/>
				<path fill="#FFFFFF" d="M269.498,96.508c-6.945,0-12.506,2.686-16.209,7.77l-0.416-6.705h-9.321l0.052,0.871
					c0.283,4.172,0.393,8.771,0.393,15.374v51.955h10.182v-24.248c3.178,3.786,8.236,5.99,13.947,5.99
					c5.965,0,11.453-2.328,15.469-6.563c4.449-4.73,6.822-11.516,6.822-19.616c0-7.168-2.033-13.371-5.934-17.926
					C280.686,98.957,275.357,96.508,269.498,96.508z M266.965,104.951c9.078,0,13.152,8.415,13.152,16.764
					c0,10.765-5.207,17.451-13.557,17.451c-5.695,0-10.619-3.877-12.004-9.464c-0.236-0.863-0.379-2-0.379-3.287v-8.214
					c0-0.739,0.189-1.646,0.336-2.521c0.043-0.27,0.116-0.547,0.143-0.816C256.176,109.022,261.233,104.951,266.965,104.951z"/>
				<path fill="#FFFFFF" d="M322.003,96.508c-6.942,0-12.499,2.686-16.202,7.77l-0.4-6.705h-9.336l0.047,0.871
					c0.288,4.172,0.412,8.771,0.412,15.374v51.955h10.195v-24.248c3.171,3.786,8.2,5.99,13.932,5.99
					c5.959,0,11.461-2.328,15.448-6.563c4.481-4.73,6.829-11.516,6.829-19.616c0-7.168-2.041-13.371-5.939-17.926
					C333.213,98.957,327.893,96.508,322.003,96.508z M319.475,104.951c9.096,0,13.15,8.415,13.15,16.764
					c0,10.765-5.178,17.451-13.523,17.451c-5.731,0-10.654-3.877-12.039-9.464c-0.234-0.863-0.344-2-0.344-3.287v-8.214
					c0-0.754,0.157-1.654,0.328-2.521c0.045-0.28,0.096-0.547,0.139-0.816C308.713,109.022,313.745,104.951,319.475,104.951z"/>
				<path fill="#FFFFFF" d="M387.82,107.601c-9.529-3.691-12.576-6.592-12.576-11.952c0-4.505,3.586-9.049,11.58-9.049
					c6.619,0,10.842,2.289,11.994,2.999l0.855,0.543l2.868-8.513l-0.565-0.339c-1.712-0.995-6.566-3.334-14.838-3.334
					c-13.018,0-22.099,7.686-22.099,18.672c0,8.863,5.671,15.058,17.9,19.496c8.644,3.24,11.88,6.56,11.88,12.237
					c0,6.421-4.963,10.419-12.959,10.419c-5.211,0-10.582-1.523-14.707-4.177l-0.89-0.561l-2.718,8.717l0.491,0.331
					c3.845,2.559,11.085,4.424,17.237,4.424c17.518,0,23.727-10.695,23.727-19.842C405.002,118.234,400.039,112.418,387.82,107.601z
					"/>
				<path fill="#FFFFFF" d="M423.361,85.962l-9.979,3.145v8.466h-7.316v8.166h7.316v24.963c0,6.034,1.152,10.266,3.506,12.933
					c2.304,2.5,5.809,3.881,9.88,3.881c3.845,0,6.593-0.758,7.875-1.217l0.591-0.204l-0.496-8.166l-0.977,0.306
					c-1.297,0.397-2.605,0.547-4.738,0.547c-3.965,0-5.662-2.496-5.662-8.371v-24.671h12.316v-8.166h-12.316V85.962z"/>
				<path fill="#FFFFFF" d="M460.961,96.508c-14.277,0-24.252,10.648-24.252,25.892c0,14.784,9.639,25.115,23.461,25.115h0.096
					c11.68,0,24.236-8.141,24.236-25.993c0-7.259-2.244-13.498-6.493-18.038C473.716,98.924,467.826,96.508,460.961,96.508z
					 M460.658,104.562c9.173,0,13.342,8.939,13.342,17.255c0,10.226-5.688,17.646-13.527,17.646h-0.102
					c-7.726,0-13.359-7.296-13.359-17.339C447.012,113.366,451.225,104.562,460.658,104.562z"/>
				<path fill="#FFFFFF" d="M515.748,96.975l-0.609-0.149c-0.914-0.223-1.65-0.317-2.555-0.317c-5.32,0-10.108,3.138-12.783,8.211
					l-0.307-7.146h-9.15l0.069,0.871c0.263,4.034,0.386,8.56,0.386,14.679l-0.094,33.318h10.199v-25.986
					c0-1.422,0.099-2.759,0.281-3.965c1.145-6.239,5.367-10.273,10.735-10.273c1.035,0,1.862,0.084,2.719,0.175l1.108,0.106V96.975z
					"/>
				<path fill="#FFFFFF" d="M538.658,96.41c-13.545,0-23.057,10.848-23.057,26.387c0,14.952,9.435,24.623,24.051,24.623
					c7.683,0,13.003-1.687,16.158-3.104l0.598-0.27l-1.964-7.602l-0.838,0.346c-2.788,1.123-6.476,2.285-12.795,2.285
					c-4.42,0-14.646-1.465-15.261-14.788l32.913,0.092l0.132-0.642c0.211-1.046,0.313-2.438,0.313-4.257
					C558.908,108.829,553.606,96.41,538.658,96.41z M537.984,104.168c3.119,0,5.626,0.955,7.506,2.86
					c2.927,2.992,3.44,7.384,3.514,9.497h-23.261C526.68,110.629,530.357,104.168,537.984,104.168z"/>
			</g>
			<g>
				<path fill="#FFFFFF" d="M182.561,32.983c2.838-0.39,6.133-0.667,9.776-0.667c6.56,0,11.261,1.327,14.358,3.933
					c3.207,2.598,5.058,6.341,5.058,11.497c0,5.207-1.851,9.467-5.108,12.412c-3.36,2.974-8.849,4.584-15.718,4.584
					c-3.335,0-6.009-0.095-8.366-0.375V32.983z M187.178,61.247c1.166,0.189,2.834,0.189,4.649,0.189
					c9.767,0.04,15.079-4.93,15.079-13.549c0.059-7.619-4.679-12.303-14.361-12.303c-2.357,0-4.146,0.189-5.367,0.427V61.247z"/>
				<path fill="#FFFFFF" d="M228.148,64.986c-6.818,0-12.189-4.544-12.189-11.792c0-7.66,5.623-12.165,12.608-12.165
					c7.325,0,12.259,4.785,12.259,11.742c0,8.52-6.574,12.215-12.623,12.215H228.148z M228.313,61.853
					c4.405,0,7.736-3.735,7.736-8.943c0-3.884-2.158-8.76-7.649-8.76c-5.407,0-7.776,4.548-7.776,8.896
					c0,5.021,3.163,8.808,7.646,8.808H228.313z"/>
				<path fill="#FFFFFF" d="M248.158,41.547l3.414,11.6c0.686,2.551,1.367,4.971,1.834,7.339h0.167
					c0.583-2.324,1.407-4.788,2.245-7.291l4.158-11.647h3.885l3.968,11.454c0.933,2.696,1.669,5.16,2.259,7.484h0.164
					c0.42-2.324,1.09-4.737,1.943-7.44l3.604-11.498h4.606l-8.21,22.915h-4.221l-3.896-10.933c-0.893-2.603-1.622-4.88-2.259-7.576
					h-0.088c-0.631,2.744-1.432,5.16-2.321,7.623l-4.11,10.886h-4.217l-7.663-22.915H248.158z"/>
				<path fill="#FFFFFF" d="M285.019,47.746c0-2.409-0.044-4.297-0.208-6.199h4.104l0.256,3.743h0.115
					c1.276-2.125,4.199-4.261,8.418-4.261c3.528,0,8.994,1.892,8.994,9.756v13.677h-4.628V51.255c0-3.695-1.522-6.811-5.889-6.811
					c-2.995,0-5.372,1.935-6.21,4.253c-0.219,0.51-0.335,1.282-0.335,1.938v13.826h-4.617V47.746z"/>
				<path fill="#FFFFFF" d="M314.227,30.852h4.613v33.61h-4.613V30.852z"/>
				<path fill="#FFFFFF" d="M336.889,64.986c-6.836,0-12.211-4.544-12.211-11.792c0-7.66,5.638-12.165,12.623-12.165
					c7.318,0,12.267,4.785,12.267,11.742c0,8.52-6.567,12.215-12.624,12.215H336.889z M337.039,61.853
					c4.438,0,7.743-3.735,7.743-8.943c0-3.884-2.161-8.76-7.627-8.76c-5.419,0-7.791,4.548-7.791,8.896
					c0,5.021,3.151,8.808,7.624,8.808H337.039z"/>
				<path fill="#FFFFFF" d="M373.334,58.97c0,1.986,0.096,3.925,0.365,5.492h-4.147l-0.431-2.891h-0.138
					c-1.385,1.801-4.184,3.415-7.788,3.415c-5.156,0-7.779-3.272-7.779-6.589c0-5.535,5.451-8.56,15.283-8.513v-0.466
					c0-1.902-0.562-5.35-5.77-5.307c-2.419,0-4.9,0.609-6.687,1.702l-1.057-2.795c2.11-1.181,5.215-1.99,8.429-1.99
					c7.828,0,9.719,4.785,9.719,9.373V58.97z M368.815,52.771c-5.044-0.092-10.786,0.707-10.786,5.156
					c0,2.744,1.989,3.976,4.318,3.976c3.378,0,5.535-1.892,6.253-3.837c0.171-0.419,0.215-0.9,0.215-1.323V52.771z"/>
				<path fill="#FFFFFF" d="M402.735,30.852v27.685c0,2.041,0.065,4.358,0.208,5.926h-4.15l-0.219-3.977h-0.08
					c-1.447,2.555-4.49,4.501-8.637,4.501c-6.145,0-10.934-4.69-10.934-11.643c-0.068-7.675,5.252-12.314,11.399-12.314
					c3.958,0,6.597,1.655,7.683,3.462h0.102v-13.64H402.735z M398.107,50.88c0-0.576-0.051-1.231-0.204-1.808
					c-0.686-2.599-3.211-4.771-6.69-4.771c-4.781,0-7.624,3.775-7.624,8.797c0,4.687,2.587,8.524,7.528,8.524
					c3.105,0,5.93-1.902,6.786-4.971c0.153-0.562,0.204-1.137,0.204-1.801V50.88z"/>
				<path fill="#FFFFFF" d="M431.925,64.986c-6.821,0-12.193-4.544-12.193-11.792c0-7.66,5.634-12.165,12.627-12.165
					c7.313,0,12.263,4.785,12.263,11.742c0,8.52-6.596,12.215-12.623,12.215H431.925z M432.1,61.853
					c4.406,0,7.736-3.735,7.736-8.943c0-3.884-2.157-8.76-7.619-8.76c-5.448,0-7.791,4.548-7.791,8.896
					c0,5.021,3.137,8.808,7.619,8.808H432.1z"/>
				<path fill="#FFFFFF" d="M450.455,47.746c0-2.409-0.043-4.297-0.207-6.199h4.104l0.254,3.743h0.125
					c1.246-2.125,4.189-4.261,8.389-4.261c3.549,0,9,1.892,9,9.756v13.677h-4.635V51.255c0-3.695-1.502-6.811-5.889-6.811
					c-2.975,0-5.368,1.935-6.188,4.253c-0.219,0.51-0.332,1.282-0.332,1.938v13.826h-4.621V47.746z"/>
				<path fill="#FFFFFF" d="M496.371,36.052v5.495h6.618v3.175h-6.618v12.36c0,2.835,0.908,4.446,3.48,4.446
					c1.254,0,1.99-0.092,2.675-0.281l0.204,3.167c-0.889,0.277-2.292,0.572-4.104,0.572c-2.16,0-3.896-0.667-5-1.76
					c-1.26-1.275-1.774-3.31-1.774-6.014V44.722h-3.938v-3.175h3.938v-4.209L496.371,36.052z"/>
				<path fill="#FFFFFF" d="M508.197,30.852h4.649v14.296h0.087c0.748-1.188,1.902-2.273,3.331-2.934
					c1.363-0.762,2.981-1.185,4.733-1.185c3.4,0,8.87,1.892,8.87,9.8v13.633h-4.624V51.307c0-3.747-1.523-6.815-5.889-6.815
					c-2.996,0-5.324,1.888-6.214,4.158c-0.251,0.558-0.295,1.188-0.295,1.986v13.826h-4.649V30.852z"/>
				<path fill="#FFFFFF" d="M540.024,53.723c0.116,5.622,4.052,7.943,8.681,7.943c3.33,0,5.367-0.524,7.055-1.137l0.842,2.93
					c-1.64,0.675-4.482,1.483-8.509,1.483c-7.795,0-12.528-4.693-12.528-11.552c0-6.964,4.576-12.404,11.988-12.404
					c8.295,0,10.448,6.573,10.448,10.786c0,0.856-0.032,1.513-0.128,1.993L540.024,53.723z M553.563,50.73
					c0.044-2.609-1.229-6.771-6.381-6.771c-4.744,0-6.742,3.888-7.088,6.771H553.563z"/>
			</g>
		</g>
	</g>
</g>
<g id="Layer_3">
</g>
</svg>
