<?xml version="1.0" encoding="utf-8"?>
<!-- Generator: Adobe Illustrator 16.0.0, SVG Export Plug-In . SVG Version: 6.00 Build 0)  -->
<!DOCTYPE svg PUBLIC "-//W3C//DTD SVG 1.1//EN" "http://www.w3.org/Graphics/SVG/1.1/DTD/svg11.dtd">
<svg version="1.1" xmlns="http://www.w3.org/2000/svg" xmlns:xlink="http://www.w3.org/1999/xlink" x="0px" y="0px" width="800px"
	 height="1280px" viewBox="0 0 800 1280" enable-background="new 0 0 800 1280" xml:space="preserve">
<g id="Layer_2">
</g>
<g id="Layer_1">
</g>
<g id="Layer_3">
	<g>
		<g>
			<defs>
				<path id="SVGID_99_" d="M258.371,372.061c-14.264,0-25.823,11.566-25.823,25.822c0,14.267,11.56,25.829,25.823,25.829
					c14.266,0,25.824-11.563,25.824-25.829C284.195,383.627,272.637,372.061,258.371,372.061"/>
			</defs>
			<clipPath id="SVGID_1_">
				<use xlink:href="#SVGID_99_"  overflow="visible"/>
			</clipPath>
			
				<linearGradient id="SVGID_2_" gradientUnits="userSpaceOnUse" x1="-3886.1045" y1="3223.5234" x2="-3885.8242" y2="3223.5234" gradientTransform="matrix(4.398324e-005 184.4791 184.4789 -1.274946e-004 -594413.625 717277.375)">
				<stop  offset="0" style="stop-color:#C13793"/>
				<stop  offset="3.384400e-004" style="stop-color:#C13793"/>
				<stop  offset="0.9997" style="stop-color:#B158A1"/>
				<stop  offset="1" style="stop-color:#B158A1"/>
			</linearGradient>
			<rect x="232.548" y="372.061" clip-path="url(#SVGID_1_)" fill="url(#SVGID_2_)" width="51.647" height="51.651"/>
		</g>
		<path fill="#FFFFFF" d="M243.613,397.883c0-1.59,1.294-2.883,2.882-2.883h23.753c1.592,0,2.881,1.293,2.881,2.883
			c0,1.598-1.289,2.887-2.881,2.887h-23.753C244.907,400.77,243.613,399.48,243.613,397.883"/>
		<path fill="#FFFFFF" d="M255.487,409.761v-23.749c0-1.592,1.293-2.885,2.884-2.885c1.594,0,2.885,1.293,2.885,2.885v23.749
			c0,1.592-1.291,2.885-2.885,2.885C256.78,412.646,255.487,411.353,255.487,409.761"/>
	</g>
	<g>
		<g>
			<defs>
				<path id="SVGID_102_" d="M658.575,605.206c-9.17,0-16.602,7.437-16.602,16.601c0,9.172,7.432,16.604,16.602,16.604
					c9.171,0,16.602-7.433,16.602-16.604C675.177,612.643,667.746,605.206,658.575,605.206"/>
			</defs>
			<clipPath id="SVGID_4_">
				<use xlink:href="#SVGID_102_"  overflow="visible"/>
			</clipPath>
			
				<linearGradient id="SVGID_5_" gradientUnits="userSpaceOnUse" x1="-3884.8408" y1="3225.6934" x2="-3884.6606" y2="3225.6934" gradientTransform="matrix(4.398324e-005 184.4791 184.4789 -1.274946e-004 -594413.625 717277.375)">
				<stop  offset="0" style="stop-color:#C13793"/>
				<stop  offset="3.384400e-004" style="stop-color:#C13793"/>
				<stop  offset="0.9997" style="stop-color:#B158A1"/>
				<stop  offset="1" style="stop-color:#B158A1"/>
			</linearGradient>
			<rect x="641.974" y="605.206" clip-path="url(#SVGID_4_)" fill="url(#SVGID_5_)" width="33.203" height="33.205"/>
		</g>
		<path fill="#FFFFFF" d="M649.088,621.807c0-1.021,0.832-1.854,1.853-1.854h15.271c1.023,0,1.852,0.832,1.852,1.854
			c0,1.027-0.828,1.855-1.852,1.855H650.94C649.92,623.662,649.088,622.834,649.088,621.807"/>
		<path fill="#FFFFFF" d="M656.722,629.442v-15.269c0-1.022,0.831-1.854,1.854-1.854c1.024,0,1.854,0.831,1.854,1.854v15.269
			c0,1.024-0.83,1.854-1.854,1.854C657.553,631.297,656.722,630.467,656.722,629.442"/>
	</g>
	<g>
		<g>
			<defs>
				<path id="SVGID_105_" d="M145.807,474.526c-6.244,0-11.308,5.062-11.308,11.306c0,6.245,5.063,11.306,11.308,11.306
					c6.245,0,11.306-5.061,11.306-11.306C157.112,479.588,152.052,474.526,145.807,474.526"/>
			</defs>
			<clipPath id="SVGID_6_">
				<use xlink:href="#SVGID_105_"  overflow="visible"/>
			</clipPath>
			
				<linearGradient id="SVGID_7_" gradientUnits="userSpaceOnUse" x1="-3885.5488" y1="3222.9141" x2="-3885.4263" y2="3222.9141" gradientTransform="matrix(4.398324e-005 184.4791 184.4789 -1.274946e-004 -594413.625 717277.375)">
				<stop  offset="0" style="stop-color:#F7982A"/>
				<stop  offset="0.0147" style="stop-color:#F7982A"/>
				<stop  offset="0.9797" style="stop-color:#FAB052"/>
				<stop  offset="1" style="stop-color:#FAB052"/>
			</linearGradient>
			<rect x="134.499" y="474.526" clip-path="url(#SVGID_6_)" fill="url(#SVGID_7_)" width="22.613" height="22.611"/>
		</g>
		<path fill="#FFFFFF" d="M139.345,485.832c0-0.698,0.566-1.264,1.262-1.264h10.4c0.696,0,1.262,0.565,1.262,1.264
			c0,0.696-0.565,1.263-1.262,1.263h-10.4C139.911,487.095,139.345,486.528,139.345,485.832"/>
		<path fill="#FFFFFF" d="M144.545,491.03v-10.397c0-0.696,0.565-1.263,1.262-1.263c0.697,0,1.263,0.566,1.263,1.263v10.397
			c0,0.7-0.565,1.263-1.263,1.263C145.11,492.293,144.545,491.73,144.545,491.03"/>
	</g>
	<g>
		<g>
			<defs>
				<path id="SVGID_108_" d="M152.268,775.285c-11.043,0-19.999,8.955-19.998,20.002c0,11.045,8.955,19.998,20.002,19.998
					c11.044,0,19.997-8.953,19.997-19.998C172.269,784.24,163.313,775.285,152.268,775.285"/>
			</defs>
			
				<linearGradient id="SVGID_8_" gradientUnits="userSpaceOnUse" x1="-1055.2988" y1="1209.4277" x2="-1015.2988" y2="1209.4277" gradientTransform="matrix(-2.384186e-007 -1 1 -6.911060e-007 -1057.157 -240.0132)">
				<stop  offset="0" style="stop-color:#F7982A"/>
				<stop  offset="0.0147" style="stop-color:#F7982A"/>
				<stop  offset="0.9797" style="stop-color:#FAB052"/>
				<stop  offset="1" style="stop-color:#FAB052"/>
			</linearGradient>
			<use xlink:href="#SVGID_108_"  overflow="visible" fill="url(#SVGID_8_)"/>
			<clipPath id="SVGID_10_">
				<use xlink:href="#SVGID_108_"  overflow="visible"/>
			</clipPath>
			
				<linearGradient id="SVGID_11_" gradientUnits="userSpaceOnUse" x1="-3886.9316" y1="3223.6777" x2="-3886.6528" y2="3223.6777" gradientTransform="matrix(0.0066 143.4082 143.4114 -9.911261e-005 -462134.2813 558193.375)">
				<stop  offset="0" style="stop-color:#04A3DD"/>
				<stop  offset="3.384400e-004" style="stop-color:#04A3DD"/>
				<stop  offset="0.9997" style="stop-color:#4EC5E0"/>
				<stop  offset="1" style="stop-color:#4EC5E0"/>
			</linearGradient>
			<rect x="132.269" y="775.285" clip-path="url(#SVGID_10_)" fill="url(#SVGID_11_)" width="40.001" height="40"/>
		</g>
		<path fill="#FFFFFF" d="M140.839,795.287c0-1.234,1.002-2.232,2.232-2.232h18.396c1.23,0,2.232,0.998,2.232,2.232
			s-1.002,2.232-2.232,2.232h-18.396C141.841,797.52,140.839,796.521,140.839,795.287"/>
		<path fill="#FFFFFF" d="M150.04,804.484v-18.398c0-1.231,0.998-2.231,2.228-2.231c1.233,0,2.231,1,2.231,2.231l0.005,18.398
			c0,1.234-1.001,2.232-2.232,2.232C151.038,806.717,150.04,805.719,150.04,804.484"/>
	</g>
	<g>
		<g>
			<defs>
				<path id="SVGID_112_" d="M585.355,258.283c-8.678,0-15.715,7.036-15.715,15.718c0,8.678,7.037,15.713,15.718,15.713
					c8.679-0.001,15.715-7.036,15.715-15.714C601.073,265.318,594.036,258.283,585.355,258.283"/>
			</defs>
			
				<linearGradient id="SVGID_12_" gradientUnits="userSpaceOnUse" x1="114.4912" y1="1914.2061" x2="154.4893" y2="1914.2061" gradientTransform="matrix(-1.873493e-007 -0.7858 0.7858 -5.430711e-007 -918.824 379.6816)">
				<stop  offset="0" style="stop-color:#F7982A"/>
				<stop  offset="0.0147" style="stop-color:#F7982A"/>
				<stop  offset="0.9797" style="stop-color:#FAB052"/>
				<stop  offset="1" style="stop-color:#FAB052"/>
			</linearGradient>
			<use xlink:href="#SVGID_112_"  overflow="visible" fill="url(#SVGID_12_)"/>
			<clipPath id="SVGID_13_">
				<use xlink:href="#SVGID_112_"  overflow="visible"/>
			</clipPath>
			
				<linearGradient id="SVGID_14_" gradientUnits="userSpaceOnUse" x1="-3895.0864" y1="3228.5879" x2="-3894.8076" y2="3228.5879" gradientTransform="matrix(0.0052 112.6865 112.6936 -0.0036 -363235.375 439193.4063)">
				<stop  offset="0" style="stop-color:#04A3DD"/>
				<stop  offset="3.384400e-004" style="stop-color:#04A3DD"/>
				<stop  offset="0.9997" style="stop-color:#4EC5E0"/>
				<stop  offset="1" style="stop-color:#4EC5E0"/>
			</linearGradient>
			<rect x="569.64" y="258.284" clip-path="url(#SVGID_13_)" fill="url(#SVGID_14_)" width="31.434" height="31.43"/>
		</g>
		<path fill="#FFFFFF" d="M576.375,274.001c0-0.97,0.787-1.755,1.754-1.755h14.457c0.967,0,1.754,0.784,1.754,1.754
			c0,0.969-0.787,1.754-1.755,1.754h-14.456C577.162,275.754,576.375,274.97,576.375,274.001"/>
		<path fill="#FFFFFF" d="M583.604,281.227v-14.456c0-0.968,0.784-1.754,1.751-1.754c0.969,0,1.754,0.786,1.754,1.754l0.003,14.456
			c0,0.97-0.786,1.754-1.754,1.754C584.389,282.98,583.604,282.196,583.604,281.227"/>
	</g>
	<g>
		<g>
			<defs>
				<path id="SVGID_116_" d="M614.069,835.893c-10.744,0-19.457,8.71-19.457,19.455c0,10.748,8.712,19.459,19.457,19.459
					c10.744,0,19.456-8.711,19.456-19.459C633.525,844.603,624.814,835.893,614.069,835.893"/>
			</defs>
			<clipPath id="SVGID_16_">
				<use xlink:href="#SVGID_116_"  overflow="visible"/>
			</clipPath>
			
				<linearGradient id="SVGID_17_" gradientUnits="userSpaceOnUse" x1="-3881.8018" y1="3224.8203" x2="-3881.6216" y2="3224.8203" gradientTransform="matrix(-0.0033 215.8626 215.8623 -1.491839e-004 -695516.1875 838772.125)">
				<stop  offset="0" style="stop-color:#F7982A"/>
				<stop  offset="0.0147" style="stop-color:#F7982A"/>
				<stop  offset="0.9797" style="stop-color:#FAB052"/>
				<stop  offset="1" style="stop-color:#FAB052"/>
			</linearGradient>
			<rect x="594.612" y="835.893" clip-path="url(#SVGID_16_)" fill="url(#SVGID_17_)" width="38.913" height="38.914"/>
		</g>
		<path fill="#FFFFFF" d="M602.948,855.348c0-1.201,0.976-2.173,2.173-2.173h17.896c1.201,0,2.173,0.972,2.173,2.173
			c0,1.199-0.972,2.173-2.173,2.173h-17.896C603.924,857.521,602.948,856.547,602.948,855.348"/>
		<path fill="#FFFFFF" d="M611.896,864.297v-17.895c0-1.201,0.975-2.174,2.173-2.174c1.2,0,2.172,0.973,2.172,2.174l0.001,17.895
			c0,1.199-0.973,2.172-2.173,2.172C612.871,866.469,611.896,865.496,611.896,864.297"/>
	</g>
	<g>
		<g>
			<defs>
				<path id="SVGID_119_" d="M554.072,668.999c-10.578,0-19.15,8.576-19.15,19.15c0,10.578,8.572,19.15,19.15,19.15
					s19.15-8.572,19.15-19.15C573.223,677.575,564.65,668.999,554.072,668.999"/>
			</defs>
			<clipPath id="SVGID_18_">
				<use xlink:href="#SVGID_119_"  overflow="visible"/>
			</clipPath>
			
				<linearGradient id="SVGID_19_" gradientUnits="userSpaceOnUse" x1="-3884.4946" y1="3225.127" x2="-3884.2871" y2="3225.127" gradientTransform="matrix(4.398324e-005 184.4791 184.4789 -1.274946e-004 -594413.625 717277.375)">
				<stop  offset="0" style="stop-color:#B30E0E"/>
				<stop  offset="1" style="stop-color:#FF1818"/>
			</linearGradient>
			<rect x="534.922" y="668.999" clip-path="url(#SVGID_18_)" fill="url(#SVGID_19_)" width="38.301" height="38.301"/>
		</g>
		<path fill="#FFFFFF" d="M543.128,688.149c0-1.182,0.958-2.138,2.138-2.138h17.613c1.183,0,2.139,0.956,2.139,2.138
			c0,1.183-0.956,2.139-2.139,2.139h-17.613C544.086,690.288,543.128,689.332,543.128,688.149"/>
		<path fill="#FFFFFF" d="M551.935,696.956v-17.613c0-1.178,0.958-2.138,2.138-2.138c1.181,0,2.139,0.96,2.139,2.138v17.613
			c0,1.183-0.958,2.139-2.139,2.139C552.893,699.095,551.935,698.139,551.935,696.956"/>
	</g>
	<g>
		<g>
			<defs>
				<path id="SVGID_122_" d="M164.028,193.651c-10.064,0-18.223,8.161-18.223,18.223c0,10.066,8.158,18.225,18.223,18.225
					c10.066,0,18.225-8.158,18.223-18.225C182.251,201.813,174.093,193.651,164.028,193.651"/>
			</defs>
			<clipPath id="SVGID_20_">
				<use xlink:href="#SVGID_122_"  overflow="visible"/>
			</clipPath>
			
				<linearGradient id="SVGID_22_" gradientUnits="userSpaceOnUse" x1="-3873.7754" y1="3216.8301" x2="-3873.8462" y2="3216.7075" gradientTransform="matrix(0.0012 350.697 350.6961 -2.423684e-004 -1127939.25 1358747)">
				<stop  offset="0" style="stop-color:#B30E0E"/>
				<stop  offset="1" style="stop-color:#FF1818"/>
			</linearGradient>
			<rect x="145.805" y="193.651" clip-path="url(#SVGID_20_)" fill="url(#SVGID_22_)" width="36.447" height="36.447"/>
		</g>
		<path fill="#FFFFFF" d="M153.614,211.874c0-1.123,0.912-2.034,2.035-2.034h16.76c1.123,0,2.035,0.911,2.035,2.034
			c0,1.125-0.912,2.035-2.035,2.035h-16.76C154.526,213.909,153.614,212.999,153.614,211.874"/>
		<path fill="#FFFFFF" d="M161.995,220.257v-16.762c0-1.122,0.91-2.035,2.033-2.035s2.035,0.913,2.035,2.035l0.002,16.762
			c0,1.123-0.914,2.034-2.037,2.034S161.995,221.38,161.995,220.257"/>
	</g>
</g>
</svg>
