<svg id="Layer_2" data-name="Layer 2" xmlns="http://www.w3.org/2000/svg" viewBox="0 0 258.15 258.15"><path d="M251.58,129.07A122.51,122.51,0,1,1,129.07,6.57,122.5,122.5,0,0,1,251.58,129.07Z" fill="#595959"/><path d="M155.56,99.74a5.81,5.81,0,1,0,5.82,5.81A5.81,5.81,0,0,0,155.56,99.74Z" fill="#fff"/><path d="M129.73,107.19a24.41,24.41,0,1,0,24.41,24.41A24.44,24.44,0,0,0,129.73,107.19Zm0,40.05a15.64,15.64,0,1,1,15.64-15.64A15.66,15.66,0,0,1,129.73,147.24Z" fill="#fff"/><path d="M149.11,181.16H109.54a29.81,29.81,0,0,1-29.78-29.77V111.82A29.81,29.81,0,0,1,109.54,82h39.57a29.81,29.81,0,0,1,29.77,29.78v39.57A29.8,29.8,0,0,1,149.11,181.16ZM109.54,91.37a20.47,20.47,0,0,0-20.45,20.45v39.57a20.47,20.47,0,0,0,20.45,20.45h39.57a20.47,20.47,0,0,0,20.45-20.45V111.82a20.47,20.47,0,0,0-20.45-20.45Z" fill="#fff"/></svg>